<svg xmlns="http://www.w3.org/2000/svg" xmlns:xlink="http://www.w3.org/1999/xlink" width="500" zoomAndPan="magnify" viewBox="0 0 375 374.999991" height="500" preserveAspectRatio="xMidYMid meet" version="1.0"><defs><g/><clipPath id="87e3f06ff7"><path d="M 77 164 L 151 164 L 151 268.667969 L 77 268.667969 Z M 77 164 " clip-rule="nonzero"/></clipPath><clipPath id="fa557daa43"><path d="M 230 49 L 325.6875 49 L 325.6875 268.667969 L 230 268.667969 Z M 230 49 " clip-rule="nonzero"/></clipPath><clipPath id="e154d4e4e9"><path d="M 167 21.367188 L 265 21.367188 L 265 100 L 167 100 Z M 167 21.367188 " clip-rule="nonzero"/></clipPath><clipPath id="7813a102ee"><path d="M 52.710938 24 L 164 24 L 164 204 L 52.710938 204 Z M 52.710938 24 " clip-rule="nonzero"/></clipPath><clipPath id="e1369d71e0"><path d="M 145 87.0625 L 233.292969 87.0625 L 233.292969 203 L 145 203 Z M 145 87.0625 " clip-rule="nonzero"/></clipPath></defs><g clip-path="url(#87e3f06ff7)"><path fill="#fdfa03" d="M 138.339844 220.558594 C 135.207031 220.558594 132.65625 218.007812 132.65625 214.878906 C 132.65625 211.742188 135.207031 209.195312 138.339844 209.195312 C 141.472656 209.195312 144.019531 211.742188 144.019531 214.878906 C 144.019531 218.007812 141.472656 220.558594 138.339844 220.558594 Z M 138.339844 268.847656 C 143.425781 268.847656 147.554688 264.722656 147.554688 259.632812 C 147.554688 255.460938 144.777344 251.941406 140.972656 250.808594 L 140.972656 226.855469 C 146.480469 225.648438 150.601562 220.746094 150.601562 214.878906 C 150.601562 208.101562 145.113281 202.609375 138.339844 202.609375 C 135.226562 202.609375 132.386719 203.777344 130.222656 205.683594 C 123.796875 198.800781 118.683594 190.925781 115.042969 182.394531 C 118.980469 181.347656 121.882812 177.765625 121.882812 173.5 C 121.882812 168.410156 117.757812 164.285156 112.671875 164.285156 C 107.582031 164.285156 103.457031 168.410156 103.457031 173.5 C 103.457031 177.367188 105.835938 180.667969 109.214844 182.039062 C 113.25 192.375 119.285156 201.871094 127.074219 210.019531 C 126.769531 210.730469 126.53125 211.472656 126.363281 212.242188 L 101.40625 212.242188 C 100.84375 209.671875 99.472656 207.402344 97.574219 205.710938 L 107.75 187.542969 L 103.152344 184.96875 L 92.980469 203.136719 C 91.855469 202.796875 90.664062 202.609375 89.429688 202.609375 C 82.652344 202.609375 77.164062 208.101562 77.164062 214.878906 C 77.164062 221.648438 82.652344 227.140625 89.429688 227.140625 C 95.296875 227.140625 100.199219 223.015625 101.40625 217.511719 L 126.363281 217.511719 C 127.367188 222.101562 130.945312 225.726562 135.507812 226.808594 L 135.507812 250.867188 C 133.523438 251.507812 131.835938 252.800781 130.695312 254.492188 C 118.589844 247.625 107.9375 238.757812 99.074219 228.4375 C 97.585938 229.5 95.917969 230.320312 94.125 230.851562 C 103.933594 242.503906 115.785156 252.253906 129.125 259.644531 C 129.132812 264.730469 133.253906 268.847656 138.339844 268.847656 " fill-opacity="1" fill-rule="nonzero"/></g><g clip-path="url(#fa557daa43)"><path fill="#5271ff" d="M 242.796875 262.265625 C 239.664062 262.265625 237.113281 259.71875 237.113281 256.585938 C 237.113281 253.449219 239.664062 250.902344 242.796875 250.902344 C 245.929688 250.902344 248.480469 253.449219 248.480469 256.585938 C 248.480469 259.71875 245.929688 262.265625 242.796875 262.265625 Z M 288.652344 210.355469 C 288.652344 205.941406 292.246094 202.347656 296.660156 202.347656 C 301.074219 202.347656 304.667969 205.941406 304.667969 210.355469 C 304.667969 214.773438 301.074219 218.363281 296.660156 218.363281 C 292.246094 218.363281 288.652344 214.773438 288.652344 210.355469 Z M 313.445312 138.375 C 310.3125 138.375 307.761719 135.828125 307.761719 132.691406 C 307.761719 129.558594 310.3125 127.011719 313.445312 127.011719 C 316.578125 127.011719 319.125 129.558594 319.125 132.691406 C 319.125 135.828125 316.578125 138.375 313.445312 138.375 Z M 266.265625 123.917969 C 261.847656 123.917969 258.257812 120.324219 258.257812 115.910156 C 258.257812 111.496094 261.847656 107.902344 266.265625 107.902344 C 270.679688 107.902344 274.269531 111.496094 274.269531 115.910156 C 274.269531 120.324219 270.679688 123.917969 266.265625 123.917969 Z M 242.796875 268.847656 C 249.570312 268.847656 255.0625 263.359375 255.0625 256.585938 C 255.0625 250.027344 249.917969 244.675781 243.445312 244.335938 L 243.445312 223.3125 C 246.125 222.136719 248.132812 219.726562 248.757812 216.800781 L 280.347656 214.292969 C 280.84375 216.359375 281.722656 218.277344 282.90625 219.96875 L 259.621094 242.425781 L 263.277344 246.214844 L 286.558594 223.757812 C 289.371094 225.878906 292.867188 227.140625 296.660156 227.140625 C 305.929688 227.140625 313.445312 219.625 313.445312 210.355469 C 313.445312 204.339844 310.277344 199.0625 305.519531 196.101562 C 311.164062 181.710938 314.097656 166.316406 314.097656 150.613281 C 314.097656 148.714844 314.054688 146.824219 313.972656 144.945312 C 320.5 144.667969 325.707031 139.289062 325.707031 132.691406 C 325.707031 125.917969 320.21875 120.429688 313.445312 120.429688 C 312.433594 120.429688 311.457031 120.554688 310.519531 120.785156 C 305.871094 101.769531 296.773438 84.121094 283.753906 69.105469 C 282.296875 70.226562 280.613281 71.058594 278.777344 71.515625 C 291.65625 86.039062 301.054688 103.710938 305.65625 123.21875 C 304.632812 124.0625 303.75 125.070312 303.042969 126.199219 L 282.757812 118.984375 C 282.945312 117.988281 283.046875 116.960938 283.046875 115.910156 C 283.046875 108.464844 278.195312 102.152344 271.484375 99.957031 L 276.683594 67.445312 C 281.203125 66.855469 284.691406 63 284.691406 58.320312 C 284.691406 53.230469 280.566406 49.105469 275.476562 49.105469 C 270.390625 49.105469 266.265625 53.230469 266.265625 58.320312 C 266.265625 61.976562 268.398438 65.125 271.484375 66.613281 L 266.28125 99.128906 L 266.265625 99.125 C 256.992188 99.125 249.480469 106.640625 249.480469 115.910156 C 249.480469 125.179688 256.992188 132.691406 266.265625 132.691406 C 272.621094 132.691406 278.152344 129.15625 281 123.945312 L 301.277344 131.160156 C 301.214844 131.664062 301.179688 132.171875 301.179688 132.691406 C 301.179688 135.429688 302.078125 137.953125 303.589844 139.992188 L 281.0625 165.847656 L 285.03125 169.304688 L 307.558594 143.453125 C 307.910156 143.644531 308.269531 143.820312 308.640625 143.980469 C 308.761719 146.175781 308.832031 148.386719 308.832031 150.613281 C 308.832031 165.710938 305.9375 180.410156 300.585938 194.039062 C 299.324219 193.738281 298.015625 193.574219 296.660156 193.574219 C 287.832031 193.574219 280.601562 200.390625 279.933594 209.042969 L 250.554688 211.375 C 257.277344 204.644531 262.765625 196.9375 266.875 188.558594 C 267.253906 188.605469 267.636719 188.636719 268.03125 188.636719 C 273.117188 188.636719 277.242188 184.511719 277.242188 179.421875 C 277.242188 176.1875 275.570312 173.34375 273.046875 171.699219 C 274.75 164.898438 275.632812 157.824219 275.632812 150.613281 C 275.632812 145.457031 275.175781 140.402344 274.300781 135.492188 C 272.691406 136.15625 270.976562 136.625 269.195312 136.875 C 269.960938 141.339844 270.367188 145.929688 270.367188 150.613281 C 270.367188 157.316406 269.550781 163.882812 267.984375 170.210938 C 262.917969 170.234375 258.816406 174.351562 258.816406 179.421875 C 258.816406 182.230469 260.074219 184.738281 262.050781 186.425781 C 258.074219 194.480469 252.738281 201.875 246.1875 208.292969 C 244.527344 206.667969 242.253906 205.660156 239.746094 205.660156 C 234.660156 205.660156 230.53125 209.785156 230.53125 214.875 C 230.53125 219.429688 233.839844 223.199219 238.179688 223.949219 L 238.179688 245.222656 C 233.695312 247.046875 230.53125 251.445312 230.53125 256.585938 C 230.53125 263.359375 236.023438 268.847656 242.796875 268.847656 " fill-opacity="1" fill-rule="nonzero"/></g><g clip-path="url(#e154d4e4e9)"><path fill="#5271ff" d="M 221.320312 35.242188 C 218.660156 35.242188 216.492188 33.078125 216.492188 30.417969 C 216.492188 27.753906 218.660156 25.589844 221.320312 25.589844 C 223.980469 25.589844 226.144531 27.753906 226.144531 30.417969 C 226.144531 33.078125 223.980469 35.242188 221.320312 35.242188 Z M 192.65625 65.890625 C 192.65625 70.304688 189.066406 73.894531 184.652344 73.894531 C 180.234375 73.894531 176.644531 70.304688 176.644531 65.890625 C 176.644531 61.472656 180.234375 57.882812 184.652344 57.882812 C 189.066406 57.882812 192.65625 61.472656 192.65625 65.890625 Z M 252.441406 99.894531 C 253.773438 98.742188 255.25 97.753906 256.839844 96.960938 C 252.285156 91.257812 247.023438 86.144531 241.1875 81.753906 C 242.203125 80.273438 242.796875 78.484375 242.796875 76.554688 C 242.796875 71.558594 238.820312 67.503906 233.863281 67.355469 L 226.128906 38.265625 C 226.542969 38.011719 226.9375 37.730469 227.300781 37.417969 C 239.972656 41.660156 251.703125 47.972656 262.085938 55.957031 C 262.414062 54.082031 263.128906 52.339844 264.144531 50.8125 C 253.769531 43.019531 242.339844 36.96875 230.214844 32.789062 C 230.414062 32.03125 230.535156 31.238281 230.535156 30.417969 C 230.535156 25.328125 226.410156 21.203125 221.320312 21.203125 C 217.144531 21.203125 213.625 23.976562 212.492188 27.785156 L 167.867188 27.785156 L 167.867188 33.050781 L 212.492188 33.050781 C 213.597656 36.769531 216.992188 39.496094 221.039062 39.617188 L 228.773438 68.707031 C 227.347656 69.582031 226.179688 70.828125 225.410156 72.316406 C 217.925781 68.867188 209.863281 66.464844 201.417969 65.289062 C 201.101562 56.296875 193.71875 49.105469 184.652344 49.105469 C 175.382812 49.105469 167.867188 56.621094 167.867188 65.890625 C 167.867188 75.160156 175.382812 82.671875 184.652344 82.671875 C 192.316406 82.671875 198.773438 77.535156 200.785156 70.515625 C 209.144531 71.691406 217.101562 74.148438 224.445312 77.6875 C 225.003906 82.242188 228.878906 85.769531 233.582031 85.769531 C 234.757812 85.769531 235.878906 85.539062 236.910156 85.140625 C 242.714844 89.355469 247.941406 94.320312 252.441406 99.894531 " fill-opacity="1" fill-rule="nonzero"/></g><g clip-path="url(#7813a102ee)"><path fill="#fdfa03" d="M 69.46875 164.726562 C 65.054688 164.726562 61.460938 161.132812 61.460938 156.71875 C 61.460938 152.300781 65.054688 148.710938 69.46875 148.710938 C 73.882812 148.710938 77.476562 152.300781 77.476562 156.71875 C 77.476562 161.132812 73.882812 164.726562 69.46875 164.726562 Z M 110.90625 137.519531 C 108.246094 137.519531 106.082031 135.355469 106.082031 132.695312 C 106.082031 130.03125 108.246094 127.867188 110.90625 127.867188 C 113.566406 127.867188 115.734375 130.03125 115.734375 132.695312 C 115.734375 135.355469 113.566406 137.519531 110.90625 137.519531 Z M 144.921875 36.84375 C 144.921875 33.710938 147.46875 31.160156 150.601562 31.160156 C 153.734375 31.160156 156.285156 33.710938 156.285156 36.84375 C 156.285156 39.976562 153.734375 42.523438 150.601562 42.523438 C 147.46875 42.523438 144.921875 39.976562 144.921875 36.84375 Z M 138.339844 80.089844 C 141.472656 80.089844 144.019531 82.636719 144.019531 85.769531 C 144.019531 88.902344 141.472656 91.453125 138.339844 91.453125 C 135.207031 91.453125 132.65625 88.902344 132.65625 85.769531 C 132.65625 82.636719 135.207031 80.089844 138.339844 80.089844 Z M 76.84375 203.988281 C 78.054688 202.589844 79.492188 201.394531 81.105469 200.460938 C 77.121094 191.828125 74.152344 182.699219 72.308594 173.257812 C 80.222656 171.90625 86.253906 165.019531 86.253906 156.71875 C 86.253906 154.589844 85.851562 152.554688 85.128906 150.683594 L 104.59375 139.394531 C 106.246094 140.949219 108.460938 141.910156 110.90625 141.910156 C 115.996094 141.910156 120.121094 137.78125 120.121094 132.695312 C 120.121094 128.082031 116.730469 124.273438 112.308594 123.597656 L 106.566406 81.953125 C 113.457031 79.863281 118.472656 73.464844 118.472656 65.890625 C 118.472656 62.535156 117.488281 59.410156 115.789062 56.789062 C 123.082031 51.050781 131.058594 46.140625 139.574219 42.207031 C 140.757812 44.636719 142.722656 46.613281 145.136719 47.820312 L 138.695312 73.515625 C 138.578125 73.511719 138.460938 73.503906 138.339844 73.503906 C 131.566406 73.503906 126.074219 78.996094 126.074219 85.769531 C 126.074219 92.542969 131.566406 98.035156 138.339844 98.035156 C 145.113281 98.035156 150.601562 92.542969 150.601562 85.769531 C 150.601562 85.175781 150.558594 84.59375 150.476562 84.023438 L 163.792969 79.019531 L 161.941406 74.089844 L 148.625 79.09375 C 147.433594 77.261719 145.769531 75.769531 143.804688 74.792969 L 150.246094 49.097656 C 150.363281 49.101562 150.484375 49.105469 150.601562 49.105469 C 157.375 49.105469 162.867188 43.613281 162.867188 36.84375 C 162.867188 30.070312 157.375 24.578125 150.601562 24.578125 C 143.828125 24.578125 138.339844 30.070312 138.339844 36.84375 C 138.339844 36.867188 138.339844 36.890625 138.34375 36.914062 C 129.066406 41.085938 120.292969 46.40625 112.210938 52.816406 C 109.332031 50.496094 105.675781 49.105469 101.691406 49.105469 C 92.421875 49.105469 84.90625 56.621094 84.90625 65.890625 C 84.90625 71.152344 87.332031 75.84375 91.121094 78.921875 L 79.296875 99.386719 C 78.613281 99.222656 77.898438 99.128906 77.164062 99.128906 C 72.074219 99.128906 67.949219 103.253906 67.949219 108.34375 C 67.949219 113.429688 72.074219 117.558594 77.164062 117.558594 C 82.253906 117.558594 86.378906 113.429688 86.378906 108.34375 C 86.378906 105.890625 85.414062 103.671875 83.855469 102.019531 L 95.679688 81.558594 C 97.441406 82.238281 99.351562 82.625 101.347656 82.664062 L 107.09375 124.3125 C 103.90625 125.765625 101.691406 128.96875 101.691406 132.695312 C 101.691406 133.433594 101.789062 134.152344 101.953125 134.839844 L 82.484375 146.128906 C 79.632812 142.621094 75.390625 140.292969 70.597656 139.976562 C 71.160156 133.664062 72.210938 127.496094 73.722656 121.503906 C 71.933594 121.035156 70.285156 120.207031 68.863281 119.105469 C 67.058594 126.058594 65.847656 133.199219 65.261719 140.464844 C 58.03125 142.332031 52.6875 148.902344 52.6875 156.71875 C 52.6875 165.125 58.871094 172.089844 66.9375 173.308594 C 68.894531 183.929688 72.210938 194.234375 76.84375 203.988281 " fill-opacity="1" fill-rule="nonzero"/></g><g clip-path="url(#e1369d71e0)"><path fill="#ff0000" d="M 229.769531 143.046875 L 233.09375 118.132812 C 233.210938 117.226562 232.679688 116.355469 231.8125 116.054688 C 215.890625 110.546875 202.046875 101.042969 190.6875 87.875 C 189.90625 87.15625 188.761719 87.113281 187.960938 87.824219 C 174.65625 100.644531 161.144531 109.898438 146.65625 116.105469 C 145.859375 116.449219 145.390625 117.277344 145.503906 118.136719 L 150.9375 158.890625 C 151.976562 166.683594 155.789062 173.851562 161.667969 179.070312 L 188.015625 202.464844 C 188.390625 202.734375 188.824219 202.957031 189.296875 202.949219 C 189.769531 202.953125 190.199219 202.734375 190.578125 202.464844 L 216.925781 179.070312 C 222.804688 173.847656 226.613281 166.683594 227.652344 158.890625 L 229.65625 143.882812 C 229.75 143.628906 229.839844 143.324219 229.769531 143.046875 Z M 210.511719 179.605469 L 204.726562 184.742188 L 204.726562 168.257812 C 204.726562 167.636719 204.425781 167.050781 203.917969 166.6875 L 191.226562 157.621094 L 191.226562 128.949219 L 196.863281 126.132812 C 200.335938 129.667969 206.769531 126.988281 206.65625 121.972656 C 206.363281 113.863281 194.386719 114.609375 195.15625 122.671875 L 188.4375 126.03125 C 187.78125 126.359375 187.367188 127.027344 187.367188 127.757812 L 187.367188 158.617188 C 187.367188 159.238281 187.671875 159.824219 188.175781 160.1875 L 200.871094 169.253906 L 200.871094 188.167969 L 195.082031 193.304688 L 195.082031 170.1875 C 195.082031 169.125 194.222656 168.261719 193.15625 168.261719 L 181.582031 168.261719 L 181.582031 160.011719 C 184.945312 158.171875 183.542969 152.757812 179.65625 152.832031 C 175.765625 152.757812 174.363281 158.171875 177.726562 160.011719 L 177.726562 170.1875 C 177.726562 171.253906 178.589844 172.117188 179.65625 172.117188 L 191.226562 172.117188 L 191.226562 196.726562 L 189.296875 198.441406 L 183.511719 193.304688 L 183.511719 181.761719 C 183.625 180.667969 182.058594 179.609375 181.445312 178.894531 C 181.523438 178.585938 181.574219 178.261719 181.582031 177.902344 C 181.457031 172.816406 173.996094 172.816406 173.867188 177.902344 C 173.945312 180.882812 176.53125 182.101562 178.6875 181.59375 L 179.65625 182.558594 L 179.65625 189.878906 C 178.890625 189.160156 162.570312 174.839844 162.570312 174.574219 L 173.304688 163.835938 C 173.667969 163.476562 173.867188 162.984375 173.867188 162.472656 L 173.867188 151.867188 L 180.8125 146.660156 C 181.296875 146.296875 181.582031 145.722656 181.582031 145.117188 L 181.582031 140.90625 C 187.617188 138.753906 186.136719 129.738281 179.65625 129.6875 C 173.171875 129.742188 171.691406 138.753906 177.726562 140.90625 L 177.726562 144.152344 L 170.78125 149.359375 C 170.296875 149.722656 170.011719 150.292969 170.011719 150.902344 L 170.011719 161.675781 L 160.09375 171.59375 C 156.898438 167.28125 155.050781 162.070312 154.535156 156.6875 L 158.863281 156.6875 L 159.242188 158.214844 C 157.28125 160.59375 159.179688 164.503906 162.296875 164.402344 C 167.03125 164.359375 167.507812 157.445312 162.851562 156.746094 C 162.417969 155.351562 162.394531 152.792969 160.367188 152.832031 L 154.019531 152.832031 L 153.25 147.046875 L 164.226562 147.046875 C 165.292969 147.046875 166.152344 146.179688 166.152344 145.117188 L 166.152344 132.871094 L 182.367188 125.664062 C 184.660156 124.601562 183.136719 121.148438 180.796875 122.140625 C 180.796875 122.140625 163.441406 129.855469 163.441406 129.855469 C 162.746094 130.164062 162.296875 130.855469 162.296875 131.617188 L 162.296875 143.191406 L 152.734375 143.191406 L 151.683594 135.316406 L 155.523438 131.476562 C 161.152344 132.722656 162.269531 124.175781 156.507812 123.902344 C 154.023438 123.863281 152.089844 126.359375 152.792969 128.75 L 151.039062 130.503906 L 149.644531 120.046875 L 175.792969 120.046875 C 176.859375 120.046875 177.71875 119.183594 177.71875 118.121094 L 177.71875 108.476562 C 177.679688 105.945312 173.90625 105.941406 173.863281 108.476562 L 173.863281 116.191406 L 155.527344 116.191406 C 163.527344 112.113281 171.253906 107.054688 178.839844 100.96875 L 183.507812 107.191406 L 183.507812 118.121094 C 183.546875 120.652344 187.320312 120.660156 187.363281 118.121094 C 187.363281 118.121094 187.363281 106.550781 187.363281 106.550781 C 187.363281 106.132812 187.226562 105.726562 186.976562 105.394531 L 181.828125 98.523438 C 184.292969 96.449219 186.742188 94.257812 189.183594 91.953125 C 192.019531 95.113281 194.992188 98.066406 198.105469 100.792969 L 191.785156 107.113281 C 191.421875 107.476562 191.21875 107.96875 191.21875 108.476562 L 191.21875 114.265625 C 191.261719 116.796875 195.035156 116.800781 195.078125 114.265625 C 195.078125 114.265625 195.078125 109.277344 195.078125 109.277344 L 201.054688 103.300781 C 203.480469 105.265625 205.996094 107.089844 208.578125 108.800781 L 208.578125 128.304688 L 198.324219 131.71875 C 197.539062 131.984375 197.007812 132.71875 197.007812 133.550781 L 197.007812 150.90625 C 197.007812 151.601562 197.375 152.238281 197.976562 152.582031 L 210.507812 159.742188 L 210.507812 179.613281 Z M 221.113281 151.15625 L 207.613281 143.441406 C 205.390625 142.21875 203.515625 145.496094 205.699219 146.789062 C 205.699219 146.789062 218.226562 153.949219 218.226562 153.949219 L 218.226562 156.6875 C 218.226562 157.515625 218.757812 158.253906 219.546875 158.519531 L 223.570312 159.859375 C 222.394531 166.15625 219.179688 171.910156 214.371094 176.179688 L 214.371094 158.617188 C 214.371094 157.925781 214 157.285156 213.398438 156.941406 L 200.871094 149.785156 L 200.871094 134.933594 L 211.125 131.519531 C 211.910156 131.253906 212.441406 130.519531 212.441406 129.6875 L 212.441406 111.261719 C 216.957031 113.960938 221.699219 116.253906 226.632812 118.199219 L 217.46875 122.128906 C 216.761719 122.433594 216.300781 123.128906 216.300781 123.902344 L 216.300781 134.082031 L 206.050781 137.5 C 203.996094 138.15625 204.53125 141.292969 206.660156 141.257812 C 206.859375 141.257812 207.066406 141.226562 207.269531 141.160156 L 218.839844 137.300781 C 219.628906 137.039062 220.160156 136.300781 220.160156 135.472656 L 220.160156 125.171875 L 228.757812 121.480469 L 226.121094 141.253906 L 221.558594 141.253906 C 220.976562 140.179688 219.875 139.367188 218.230469 139.328125 C 213.144531 139.457031 213.144531 146.914062 218.230469 147.042969 C 219.875 147 220.976562 146.1875 221.558594 145.113281 L 225.605469 145.113281 L 224.15625 155.984375 L 222.085938 155.296875 C 221.996094 154.085938 222.511719 151.816406 221.113281 151.15625 Z M 221.113281 151.15625 " fill-opacity="1" fill-rule="nonzero"/></g><g fill="#ffffff" fill-opacity="1"><g transform="translate(113.547244, 342.749977)"><g><path d="M 6.0625 -3.984375 L 6.0625 -3.65625 C 6.0625 -2.070312 6.15625 -1.101562 6.34375 -0.75 C 6.53125 -0.394531 6.890625 -0.21875 7.421875 -0.21875 L 7.546875 -0.21875 L 7.546875 0 L 2.984375 0 L 2.984375 -0.21875 L 3.109375 -0.21875 C 3.640625 -0.21875 3.992188 -0.394531 4.171875 -0.75 C 4.359375 -1.101562 4.453125 -2.070312 4.453125 -3.65625 L 4.453125 -9.9375 L 3.75 -9.9375 C 2.6875 -9.9375 1.929688 -9.753906 1.484375 -9.390625 C 1.035156 -9.035156 0.722656 -8.390625 0.546875 -7.453125 L 0.34375 -7.453125 L 0.515625 -10.25 L 10.015625 -10.25 L 10.171875 -7.453125 L 9.984375 -7.453125 C 9.804688 -8.390625 9.488281 -9.035156 9.03125 -9.390625 C 8.582031 -9.753906 7.832031 -9.9375 6.78125 -9.9375 L 6.0625 -9.9375 Z M 6.0625 -3.984375 "/></g></g></g><g fill="#ffffff" fill-opacity="1"><g transform="translate(127.923045, 342.749977)"><g><path d="M 0.640625 0 L 0.640625 -0.21875 L 0.75 -0.21875 C 1.289062 -0.21875 1.648438 -0.394531 1.828125 -0.75 C 2.015625 -1.101562 2.109375 -2.070312 2.109375 -3.65625 L 2.109375 -6.59375 C 2.109375 -8.175781 2.015625 -9.144531 1.828125 -9.5 C 1.648438 -9.863281 1.289062 -10.046875 0.75 -10.046875 L 0.640625 -10.046875 L 0.640625 -10.25 L 8.5 -10.25 L 8.59375 -7.796875 L 8.40625 -7.796875 C 8.238281 -8.585938 7.914062 -9.140625 7.4375 -9.453125 C 6.96875 -9.773438 6.222656 -9.9375 5.203125 -9.9375 L 3.71875 -9.9375 L 3.71875 -5.578125 C 4.675781 -5.597656 5.320312 -5.734375 5.65625 -5.984375 C 6 -6.234375 6.179688 -6.695312 6.203125 -7.375 L 6.421875 -7.375 L 6.421875 -3.328125 L 6.203125 -3.328125 C 6.148438 -4.078125 5.953125 -4.59375 5.609375 -4.875 C 5.265625 -5.15625 4.632812 -5.300781 3.71875 -5.3125 L 3.71875 -3.09375 C 3.71875 -1.789062 3.835938 -1 4.078125 -0.71875 C 4.316406 -0.4375 4.925781 -0.296875 5.90625 -0.296875 C 6.9375 -0.296875 7.71875 -0.519531 8.25 -0.96875 C 8.789062 -1.414062 9.128906 -2.125 9.265625 -3.09375 L 9.484375 -3.09375 L 9.375 0 Z M 0.640625 0 "/></g></g></g><g fill="#ffffff" fill-opacity="1"><g transform="translate(141.817565, 342.749977)"><g><path d="M 9.734375 -3 C 9.660156 -2.007812 9.269531 -1.21875 8.5625 -0.625 C 7.851562 -0.0390625 6.921875 0.25 5.765625 0.25 C 4.234375 0.25 3.015625 -0.203125 2.109375 -1.109375 C 1.203125 -2.015625 0.75 -3.25 0.75 -4.8125 C 0.75 -6.5 1.238281 -7.867188 2.21875 -8.921875 C 3.207031 -9.972656 4.472656 -10.5 6.015625 -10.5 C 6.578125 -10.5 7.175781 -10.394531 7.8125 -10.1875 C 8.457031 -9.976562 8.832031 -9.875 8.9375 -9.875 C 9.03125 -9.875 9.113281 -9.898438 9.1875 -9.953125 C 9.257812 -10.015625 9.320312 -10.101562 9.375 -10.21875 L 9.59375 -10.21875 L 9.6875 -6.96875 L 9.484375 -6.96875 C 9.191406 -8 8.765625 -8.789062 8.203125 -9.34375 C 7.640625 -9.894531 6.976562 -10.171875 6.21875 -10.171875 C 5.132812 -10.171875 4.265625 -9.695312 3.609375 -8.75 C 2.960938 -7.800781 2.640625 -6.546875 2.640625 -4.984375 C 2.640625 -3.515625 2.960938 -2.363281 3.609375 -1.53125 C 4.265625 -0.695312 5.160156 -0.28125 6.296875 -0.28125 C 7.179688 -0.28125 7.910156 -0.523438 8.484375 -1.015625 C 9.054688 -1.503906 9.378906 -2.164062 9.453125 -3 Z M 9.734375 -3 "/></g></g></g><g fill="#ffffff" fill-opacity="1"><g transform="translate(156.178557, 342.749977)"><g><path d="M 9.5 -2.625 L 9.5 -7.3125 C 9.5 -8.351562 9.382812 -9.0625 9.15625 -9.4375 C 8.9375 -9.820312 8.539062 -10.023438 7.96875 -10.046875 L 7.96875 -10.25 L 11.328125 -10.25 L 11.328125 -10.046875 C 10.765625 -10.023438 10.367188 -9.820312 10.140625 -9.4375 C 9.921875 -9.0625 9.8125 -8.351562 9.8125 -7.3125 L 9.8125 0.109375 L 9.59375 0.109375 L 2.34375 -8.96875 L 2.34375 -2.9375 C 2.34375 -1.882812 2.453125 -1.171875 2.671875 -0.796875 C 2.898438 -0.421875 3.296875 -0.222656 3.859375 -0.203125 L 3.859375 0 L 0.515625 0 L 0.515625 -0.21875 C 1.085938 -0.226562 1.484375 -0.421875 1.703125 -0.796875 C 1.921875 -1.179688 2.03125 -1.894531 2.03125 -2.9375 L 2.03125 -7.40625 C 2.03125 -8.46875 1.921875 -9.171875 1.703125 -9.515625 C 1.492188 -9.859375 1.113281 -10.035156 0.5625 -10.046875 L 0.5625 -10.25 L 3.375 -10.25 Z M 9.5 -2.625 "/></g></g></g><g fill="#ffffff" fill-opacity="1"><g transform="translate(171.63539, 342.749977)"><g><path d="M 6.140625 -0.078125 C 7.210938 -0.078125 8.078125 -0.535156 8.734375 -1.453125 C 9.398438 -2.367188 9.734375 -3.59375 9.734375 -5.125 C 9.734375 -6.675781 9.410156 -7.90625 8.765625 -8.8125 C 8.117188 -9.71875 7.25 -10.171875 6.15625 -10.171875 C 5.09375 -10.171875 4.226562 -9.710938 3.5625 -8.796875 C 2.894531 -7.878906 2.5625 -6.664062 2.5625 -5.15625 C 2.5625 -3.632812 2.894531 -2.40625 3.5625 -1.46875 C 4.226562 -0.539062 5.085938 -0.078125 6.140625 -0.078125 Z M 0.671875 -5.078125 C 0.671875 -5.703125 0.769531 -6.300781 0.96875 -6.875 C 1.175781 -7.445312 1.472656 -7.96875 1.859375 -8.4375 C 2.410156 -9.101562 3.0625 -9.613281 3.8125 -9.96875 C 4.5625 -10.320312 5.367188 -10.5 6.234375 -10.5 C 6.910156 -10.5 7.570312 -10.378906 8.21875 -10.140625 C 8.863281 -9.898438 9.4375 -9.5625 9.9375 -9.125 C 10.5 -8.625 10.921875 -8.039062 11.203125 -7.375 C 11.484375 -6.707031 11.625 -5.953125 11.625 -5.109375 C 11.625 -4.390625 11.484375 -3.691406 11.203125 -3.015625 C 10.929688 -2.347656 10.550781 -1.773438 10.0625 -1.296875 C 9.570312 -0.828125 8.972656 -0.453125 8.265625 -0.171875 C 7.566406 0.109375 6.867188 0.25 6.171875 0.25 C 5.410156 0.25 4.703125 0.125 4.046875 -0.125 C 3.390625 -0.375 2.804688 -0.742188 2.296875 -1.234375 C 1.734375 -1.742188 1.320312 -2.3125 1.0625 -2.9375 C 0.800781 -3.5625 0.671875 -4.273438 0.671875 -5.078125 Z M 0.671875 -5.078125 "/></g></g></g><g fill="#ffffff" fill-opacity="1"><g transform="translate(187.773424, 342.749977)"><g><path d="M 3.71875 -3.09375 C 3.71875 -1.820312 3.847656 -1.035156 4.109375 -0.734375 C 4.378906 -0.441406 4.957031 -0.296875 5.84375 -0.296875 C 6.90625 -0.296875 7.707031 -0.515625 8.25 -0.953125 C 8.789062 -1.398438 9.128906 -2.113281 9.265625 -3.09375 L 9.484375 -3.09375 L 9.375 0 L 0.640625 0 L 0.640625 -0.21875 L 0.75 -0.21875 C 1.289062 -0.21875 1.648438 -0.394531 1.828125 -0.75 C 2.015625 -1.101562 2.109375 -2.070312 2.109375 -3.65625 L 2.109375 -6.59375 C 2.109375 -8.175781 2.015625 -9.144531 1.828125 -9.5 C 1.648438 -9.863281 1.289062 -10.046875 0.75 -10.046875 L 0.640625 -10.046875 L 0.640625 -10.25 L 5.203125 -10.25 L 5.203125 -10.046875 L 5.078125 -10.046875 C 4.546875 -10.046875 4.1875 -9.859375 4 -9.484375 C 3.8125 -9.117188 3.71875 -8.101562 3.71875 -6.4375 Z M 3.71875 -3.09375 "/></g></g></g><g fill="#ffffff" fill-opacity="1"><g transform="translate(201.238496, 342.749977)"><g><path d="M 6.140625 -0.078125 C 7.210938 -0.078125 8.078125 -0.535156 8.734375 -1.453125 C 9.398438 -2.367188 9.734375 -3.59375 9.734375 -5.125 C 9.734375 -6.675781 9.410156 -7.90625 8.765625 -8.8125 C 8.117188 -9.71875 7.25 -10.171875 6.15625 -10.171875 C 5.09375 -10.171875 4.226562 -9.710938 3.5625 -8.796875 C 2.894531 -7.878906 2.5625 -6.664062 2.5625 -5.15625 C 2.5625 -3.632812 2.894531 -2.40625 3.5625 -1.46875 C 4.226562 -0.539062 5.085938 -0.078125 6.140625 -0.078125 Z M 0.671875 -5.078125 C 0.671875 -5.703125 0.769531 -6.300781 0.96875 -6.875 C 1.175781 -7.445312 1.472656 -7.96875 1.859375 -8.4375 C 2.410156 -9.101562 3.0625 -9.613281 3.8125 -9.96875 C 4.5625 -10.320312 5.367188 -10.5 6.234375 -10.5 C 6.910156 -10.5 7.570312 -10.378906 8.21875 -10.140625 C 8.863281 -9.898438 9.4375 -9.5625 9.9375 -9.125 C 10.5 -8.625 10.921875 -8.039062 11.203125 -7.375 C 11.484375 -6.707031 11.625 -5.953125 11.625 -5.109375 C 11.625 -4.390625 11.484375 -3.691406 11.203125 -3.015625 C 10.929688 -2.347656 10.550781 -1.773438 10.0625 -1.296875 C 9.570312 -0.828125 8.972656 -0.453125 8.265625 -0.171875 C 7.566406 0.109375 6.867188 0.25 6.171875 0.25 C 5.410156 0.25 4.703125 0.125 4.046875 -0.125 C 3.390625 -0.375 2.804688 -0.742188 2.296875 -1.234375 C 1.734375 -1.742188 1.320312 -2.3125 1.0625 -2.9375 C 0.800781 -3.5625 0.671875 -4.273438 0.671875 -5.078125 Z M 0.671875 -5.078125 "/></g></g></g><g fill="#ffffff" fill-opacity="1"><g transform="translate(217.37653, 342.749977)"><g><path d="M 9.90625 -0.765625 L 9.421875 -0.828125 C 8.671875 -0.429688 8.007812 -0.15625 7.4375 0 C 6.875 0.164062 6.296875 0.25 5.703125 0.25 C 4.191406 0.25 2.988281 -0.21875 2.09375 -1.15625 C 1.195312 -2.09375 0.75 -3.351562 0.75 -4.9375 C 0.75 -6.5625 1.242188 -7.894531 2.234375 -8.9375 C 3.222656 -9.976562 4.484375 -10.5 6.015625 -10.5 C 6.578125 -10.5 7.175781 -10.394531 7.8125 -10.1875 C 8.457031 -9.976562 8.832031 -9.875 8.9375 -9.875 C 9.03125 -9.875 9.113281 -9.898438 9.1875 -9.953125 C 9.257812 -10.015625 9.320312 -10.101562 9.375 -10.21875 L 9.59375 -10.21875 L 9.6875 -6.96875 L 9.484375 -6.96875 C 9.191406 -8 8.765625 -8.789062 8.203125 -9.34375 C 7.640625 -9.894531 6.976562 -10.171875 6.21875 -10.171875 C 5.125 -10.171875 4.253906 -9.691406 3.609375 -8.734375 C 2.960938 -7.773438 2.640625 -6.476562 2.640625 -4.84375 C 2.640625 -3.40625 2.957031 -2.25 3.59375 -1.375 C 4.238281 -0.507812 5.082031 -0.078125 6.125 -0.078125 C 6.832031 -0.078125 7.382812 -0.269531 7.78125 -0.65625 C 8.1875 -1.039062 8.390625 -1.570312 8.390625 -2.25 C 8.390625 -2.769531 8.269531 -3.140625 8.03125 -3.359375 C 7.789062 -3.585938 7.378906 -3.710938 6.796875 -3.734375 L 6.796875 -3.921875 L 11.359375 -3.921875 L 11.359375 -3.734375 C 10.734375 -3.679688 10.328125 -3.5625 10.140625 -3.375 C 9.960938 -3.1875 9.875 -2.71875 9.875 -1.96875 C 9.875 -1.800781 9.878906 -1.492188 9.890625 -1.046875 C 9.898438 -0.921875 9.90625 -0.828125 9.90625 -0.765625 Z M 9.90625 -0.765625 "/></g></g></g><g fill="#ffffff" fill-opacity="1"><g transform="translate(232.677874, 342.749977)"><g><path d="M 5.3125 -10.25 L 5.3125 -10.046875 L 5.1875 -10.046875 C 4.65625 -10.046875 4.296875 -9.859375 4.109375 -9.484375 C 3.921875 -9.117188 3.828125 -8.101562 3.828125 -6.4375 L 3.828125 -3.8125 C 3.828125 -2.144531 3.921875 -1.128906 4.109375 -0.765625 C 4.296875 -0.398438 4.65625 -0.21875 5.1875 -0.21875 L 5.3125 -0.21875 L 5.3125 0 L 0.671875 0 L 0.671875 -0.21875 L 0.78125 -0.21875 C 1.3125 -0.21875 1.671875 -0.394531 1.859375 -0.75 C 2.046875 -1.101562 2.140625 -2.070312 2.140625 -3.65625 L 2.140625 -6.59375 C 2.140625 -8.175781 2.046875 -9.144531 1.859375 -9.5 C 1.671875 -9.863281 1.3125 -10.046875 0.78125 -10.046875 L 0.671875 -10.046875 L 0.671875 -10.25 Z M 4.625 -12.84375 L 2.171875 -11.3125 L 1.671875 -11.3125 L 3.8125 -13.515625 C 3.988281 -13.691406 4.128906 -13.8125 4.234375 -13.875 C 4.335938 -13.9375 4.441406 -13.96875 4.546875 -13.96875 C 4.691406 -13.96875 4.816406 -13.914062 4.921875 -13.8125 C 5.023438 -13.71875 5.078125 -13.597656 5.078125 -13.453125 C 5.078125 -13.347656 5.035156 -13.242188 4.953125 -13.140625 C 4.878906 -13.046875 4.769531 -12.945312 4.625 -12.84375 Z M 4.625 -12.84375 "/></g></g></g><g fill="#ffffff" fill-opacity="1"><g transform="translate(242.507421, 342.749977)"><g><path d="M 2.6875 -4.421875 L 5.9375 -4.421875 L 4.328125 -8.46875 Z M 2.5625 -4.0625 L 2.25 -3.296875 C 2.070312 -2.867188 1.9375 -2.484375 1.84375 -2.140625 C 1.75 -1.796875 1.703125 -1.507812 1.703125 -1.28125 C 1.703125 -0.96875 1.800781 -0.722656 2 -0.546875 C 2.207031 -0.378906 2.546875 -0.269531 3.015625 -0.21875 L 3.015625 0 L -0.28125 0 L -0.28125 -0.21875 C 0.363281 -0.25 1.164062 -1.445312 2.125 -3.8125 C 2.226562 -4.070312 2.304688 -4.269531 2.359375 -4.40625 L 4.84375 -10.5 L 5.125 -10.5 L 8.296875 -2.78125 C 8.328125 -2.695312 8.375 -2.582031 8.4375 -2.4375 C 9.039062 -0.96875 9.644531 -0.226562 10.25 -0.21875 L 10.25 0 L 5.9375 0 L 5.9375 -0.203125 C 6.351562 -0.234375 6.660156 -0.3125 6.859375 -0.4375 C 7.054688 -0.570312 7.15625 -0.769531 7.15625 -1.03125 C 7.15625 -1.132812 7.128906 -1.269531 7.078125 -1.4375 C 7.035156 -1.601562 6.9375 -1.890625 6.78125 -2.296875 L 6.09375 -4.0625 Z M 2.5625 -4.0625 "/></g></g></g><g fill="#ffffff" fill-opacity="1"><g transform="translate(256.401944, 342.749977)"><g><path d="M 1.015625 0.078125 L 0.875 -3.140625 L 1.078125 -3.140625 C 1.253906 -2.171875 1.609375 -1.414062 2.140625 -0.875 C 2.679688 -0.34375 3.335938 -0.078125 4.109375 -0.078125 C 4.691406 -0.078125 5.15625 -0.265625 5.5 -0.640625 C 5.84375 -1.015625 6.015625 -1.507812 6.015625 -2.125 C 6.015625 -2.644531 5.867188 -3.082031 5.578125 -3.4375 C 5.285156 -3.800781 4.75 -4.171875 3.96875 -4.546875 C 2.78125 -5.109375 2.007812 -5.597656 1.65625 -6.015625 C 1.300781 -6.429688 1.125 -6.957031 1.125 -7.59375 C 1.125 -8.425781 1.390625 -9.117188 1.921875 -9.671875 C 2.460938 -10.222656 3.128906 -10.5 3.921875 -10.5 C 4.441406 -10.5 4.929688 -10.40625 5.390625 -10.21875 C 5.859375 -10.03125 6.09375 -9.9375 6.09375 -9.9375 C 6.207031 -9.9375 6.289062 -9.960938 6.34375 -10.015625 C 6.394531 -10.078125 6.4375 -10.179688 6.46875 -10.328125 L 6.6875 -10.328125 L 6.828125 -7.484375 L 6.640625 -7.484375 C 6.347656 -8.421875 5.988281 -9.101562 5.5625 -9.53125 C 5.144531 -9.957031 4.628906 -10.171875 4.015625 -10.171875 C 3.554688 -10.171875 3.175781 -10.019531 2.875 -9.71875 C 2.582031 -9.425781 2.4375 -9.039062 2.4375 -8.5625 C 2.4375 -8.113281 2.5625 -7.738281 2.8125 -7.4375 C 3.070312 -7.144531 3.601562 -6.804688 4.40625 -6.421875 C 4.601562 -6.316406 4.925781 -6.160156 5.375 -5.953125 C 5.820312 -5.742188 6.125 -5.582031 6.28125 -5.46875 C 6.75 -5.144531 7.082031 -4.78125 7.28125 -4.375 C 7.488281 -3.96875 7.59375 -3.472656 7.59375 -2.890625 C 7.59375 -1.972656 7.273438 -1.21875 6.640625 -0.625 C 6.015625 -0.03125 5.203125 0.265625 4.203125 0.265625 C 3.691406 0.265625 3.15625 0.164062 2.59375 -0.03125 C 2.039062 -0.238281 1.734375 -0.34375 1.671875 -0.34375 C 1.554688 -0.34375 1.460938 -0.304688 1.390625 -0.234375 C 1.328125 -0.171875 1.285156 -0.0664062 1.265625 0.078125 Z M 1.015625 0.078125 "/></g></g></g><g fill="#ffffff" fill-opacity="1"><g transform="translate(76.175581, 318.232479)"><g><path d="M 30.359375 -26.328125 C 28.453125 -26.078125 27.222656 -25.660156 26.671875 -25.078125 C 26.117188 -24.492188 25.84375 -22.800781 25.84375 -20 L 25.84375 0.28125 L 24.15625 0.28125 L 7.359375 -22.40625 L 7.359375 -8.125 C 7.359375 -6.40625 7.460938 -5.148438 7.671875 -4.359375 C 7.878906 -3.566406 8.128906 -3.019531 8.421875 -2.71875 C 8.722656 -2.425781 9.289062 -2.144531 10.125 -1.875 C 10.96875 -1.613281 11.703125 -1.457031 12.328125 -1.40625 L 12.328125 0 L 0.921875 0 L 0.921875 -1.40625 C 2.472656 -1.625 3.617188 -1.972656 4.359375 -2.453125 C 5.109375 -2.941406 5.484375 -4.75 5.484375 -7.875 L 5.484375 -21.5625 C 5.484375 -24.257812 3.816406 -25.847656 0.484375 -26.328125 L 0.484375 -27.71875 L 8.359375 -27.71875 L 23.96875 -6.609375 L 23.96875 -19.765625 C 23.96875 -22.734375 23.597656 -24.503906 22.859375 -25.078125 C 22.128906 -25.660156 20.867188 -26.078125 19.078125 -26.328125 L 19.078125 -27.71875 L 30.359375 -27.71875 Z M 30.359375 -26.328125 "/></g></g></g><g fill="#ffffff" fill-opacity="1"><g transform="translate(106.856182, 318.232479)"><g><path d="M 24.6875 0 L 1.6875 0 L 1.6875 -1.40625 C 3.425781 -1.550781 4.519531 -1.773438 4.96875 -2.078125 C 5.414062 -2.390625 5.640625 -2.953125 5.640625 -3.765625 L 5.640625 -23.671875 C 5.640625 -24.585938 5.289062 -25.234375 4.59375 -25.609375 C 3.90625 -25.984375 2.9375 -26.222656 1.6875 -26.328125 L 1.6875 -27.71875 L 23.125 -27.71875 L 23.125 -21.03125 L 21.6875 -21.03125 C 21.40625 -22.050781 20.882812 -23.039062 20.125 -24 C 19.363281 -24.96875 18.707031 -25.566406 18.15625 -25.796875 C 17.613281 -26.035156 16.28125 -26.15625 14.15625 -26.15625 L 9.8125 -26.15625 L 9.8125 -15.15625 L 12.9375 -15.15625 C 14.40625 -15.15625 15.460938 -15.484375 16.109375 -16.140625 C 16.765625 -16.796875 17.222656 -17.976562 17.484375 -19.6875 L 18.921875 -19.6875 L 18.921875 -8.84375 L 17.484375 -8.84375 C 17.421875 -9.5 17.238281 -10.265625 16.9375 -11.140625 C 16.632812 -12.023438 16.207031 -12.648438 15.65625 -13.015625 C 15.101562 -13.378906 14.195312 -13.5625 12.9375 -13.5625 L 9.8125 -13.5625 L 9.8125 -5.234375 C 9.8125 -3.648438 10.0625 -2.648438 10.5625 -2.234375 C 11.0625 -1.816406 12.378906 -1.609375 14.515625 -1.609375 L 16.21875 -1.609375 C 18.039062 -1.609375 19.269531 -1.75 19.90625 -2.03125 C 20.539062 -2.320312 21.242188 -3.109375 22.015625 -4.390625 C 22.785156 -5.679688 23.382812 -6.941406 23.8125 -8.171875 L 25.203125 -8.171875 Z M 24.6875 0 "/></g></g></g><g fill="#ffffff" fill-opacity="1"><g transform="translate(132.966917, 318.232479)"><g><path d="M 15.484375 0 L 15.484375 -1.40625 C 17.878906 -1.5 19.078125 -1.867188 19.078125 -2.515625 C 19.078125 -3.222656 17.210938 -6.359375 13.484375 -11.921875 C 9.429688 -6.585938 7.40625 -3.519531 7.40625 -2.71875 C 7.40625 -1.894531 8.472656 -1.457031 10.609375 -1.40625 L 10.609375 0 L 0.234375 0 L 0.234375 -1.40625 C 1.679688 -1.519531 2.757812 -1.800781 3.46875 -2.25 C 4.1875 -2.707031 5.3125 -3.960938 6.84375 -6.015625 L 12.40625 -13.515625 C 7.5625 -20.648438 4.835938 -24.53125 4.234375 -25.15625 C 3.628906 -25.78125 2.394531 -26.171875 0.53125 -26.328125 L 0.53125 -27.71875 L 13.359375 -27.71875 L 13.359375 -26.328125 C 10.992188 -26.171875 9.8125 -25.820312 9.8125 -25.28125 C 9.8125 -24.769531 10.359375 -23.675781 11.453125 -22 L 12.25 -20.71875 C 12.988281 -19.519531 13.90625 -18.125 15 -16.53125 C 18.59375 -21.382812 20.390625 -24.222656 20.390625 -25.046875 C 20.390625 -25.773438 19.328125 -26.203125 17.203125 -26.328125 L 17.203125 -27.71875 L 27.515625 -27.71875 L 27.515625 -26.328125 C 25.742188 -26.234375 24.441406 -25.773438 23.609375 -24.953125 C 22.773438 -24.128906 20.25 -20.828125 16.03125 -15.046875 L 19.46875 -10.046875 C 22.164062 -6.035156 23.707031 -3.800781 24.09375 -3.34375 C 24.488281 -2.894531 24.972656 -2.460938 25.546875 -2.046875 C 26.117188 -1.628906 27.082031 -1.414062 28.4375 -1.40625 L 28.4375 0 Z M 15.484375 0 "/></g></g></g><g fill="#ffffff" fill-opacity="1"><g transform="translate(161.36258, 318.232479)"><g><path d="M 1.6875 -9.078125 L 1.6875 -12.171875 L 13.328125 -12.171875 L 13.328125 -9.078125 Z M 1.6875 -9.078125 "/></g></g></g><g fill="#ffffff" fill-opacity="1"><g transform="translate(176.322055, 318.232479)"><g><path d="M 29.96875 -26.328125 C 28 -26.171875 26.753906 -25.726562 26.234375 -25 C 25.710938 -24.28125 25.453125 -22.664062 25.453125 -20.15625 L 25.453125 -8.125 C 25.453125 -5.394531 24.453125 -3.242188 22.453125 -1.671875 C 20.453125 -0.0976562 18.117188 0.6875 15.453125 0.6875 C 12.296875 0.6875 9.773438 -0.078125 7.890625 -1.609375 C 6.015625 -3.148438 5.078125 -5.054688 5.078125 -7.328125 L 5.078125 -23.671875 C 5.078125 -25.191406 3.867188 -26.078125 1.453125 -26.328125 L 1.453125 -27.71875 L 13.015625 -27.71875 L 13.015625 -26.328125 C 11.453125 -26.203125 10.4375 -25.972656 9.96875 -25.640625 C 9.507812 -25.316406 9.28125 -24.734375 9.28125 -23.890625 L 9.28125 -8.5625 C 9.28125 -3.875 11.570312 -1.53125 16.15625 -1.53125 C 18.550781 -1.53125 20.375 -2.195312 21.625 -3.53125 C 22.882812 -4.875 23.515625 -6.535156 23.515625 -8.515625 L 23.515625 -19.921875 C 23.515625 -22.679688 23.171875 -24.382812 22.484375 -25.03125 C 21.804688 -25.6875 20.507812 -26.117188 18.59375 -26.328125 L 18.59375 -27.71875 L 29.96875 -27.71875 Z M 29.96875 -26.328125 "/></g></g></g><g fill="#ffffff" fill-opacity="1"><g transform="translate(206.553476, 318.232479)"><g><path d="M 30.359375 -26.328125 C 28.453125 -26.078125 27.222656 -25.660156 26.671875 -25.078125 C 26.117188 -24.492188 25.84375 -22.800781 25.84375 -20 L 25.84375 0.28125 L 24.15625 0.28125 L 7.359375 -22.40625 L 7.359375 -8.125 C 7.359375 -6.40625 7.460938 -5.148438 7.671875 -4.359375 C 7.878906 -3.566406 8.128906 -3.019531 8.421875 -2.71875 C 8.722656 -2.425781 9.289062 -2.144531 10.125 -1.875 C 10.96875 -1.613281 11.703125 -1.457031 12.328125 -1.40625 L 12.328125 0 L 0.921875 0 L 0.921875 -1.40625 C 2.472656 -1.625 3.617188 -1.972656 4.359375 -2.453125 C 5.109375 -2.941406 5.484375 -4.75 5.484375 -7.875 L 5.484375 -21.5625 C 5.484375 -24.257812 3.816406 -25.847656 0.484375 -26.328125 L 0.484375 -27.71875 L 8.359375 -27.71875 L 23.96875 -6.609375 L 23.96875 -19.765625 C 23.96875 -22.734375 23.597656 -24.503906 22.859375 -25.078125 C 22.128906 -25.660156 20.867188 -26.078125 19.078125 -26.328125 L 19.078125 -27.71875 L 30.359375 -27.71875 Z M 30.359375 -26.328125 "/></g></g></g><g fill="#ffffff" fill-opacity="1"><g transform="translate(237.234077, 318.232479)"><g><path d="M 1.5625 0 L 1.5625 -1.40625 C 3.394531 -1.539062 4.546875 -1.726562 5.015625 -1.96875 C 5.484375 -2.21875 5.71875 -2.773438 5.71875 -3.640625 L 5.71875 -23.71875 C 5.71875 -24.582031 5.332031 -25.207031 4.5625 -25.59375 C 3.789062 -25.988281 2.789062 -26.234375 1.5625 -26.328125 L 1.5625 -27.71875 L 14.046875 -27.71875 L 14.046875 -26.328125 C 12.285156 -26.203125 11.148438 -25.972656 10.640625 -25.640625 C 10.140625 -25.304688 9.890625 -24.734375 9.890625 -23.921875 L 9.890625 -3.890625 C 9.890625 -3.210938 10.109375 -2.664062 10.546875 -2.25 C 10.992188 -1.84375 12.160156 -1.5625 14.046875 -1.40625 L 14.046875 0 Z M 1.5625 0 "/></g></g></g><g fill="#ffffff" fill-opacity="1"><g transform="translate(252.838026, 318.232479)"><g><path d="M 23.09375 -20.203125 C 22.800781 -21.265625 22.273438 -22.378906 21.515625 -23.546875 C 20.753906 -24.722656 20.097656 -25.457031 19.546875 -25.75 C 18.992188 -26.039062 17.679688 -26.1875 15.609375 -26.1875 L 14.4375 -26.1875 L 14.4375 -4.046875 C 14.4375 -3.316406 14.671875 -2.742188 15.140625 -2.328125 C 15.609375 -1.910156 16.867188 -1.601562 18.921875 -1.40625 L 18.921875 0 L 5.84375 0 L 5.84375 -1.40625 C 7.757812 -1.539062 8.976562 -1.753906 9.5 -2.046875 C 10.019531 -2.347656 10.28125 -2.945312 10.28125 -3.84375 L 10.28125 -26.1875 L 9.15625 -26.1875 C 7.269531 -26.1875 6.050781 -26.09375 5.5 -25.90625 C 4.945312 -25.71875 4.265625 -25.035156 3.453125 -23.859375 C 2.640625 -22.679688 2.050781 -21.460938 1.6875 -20.203125 L 0.28125 -20.203125 L 0.28125 -27.71875 L 24.4375 -27.71875 L 24.4375 -20.203125 Z M 23.09375 -20.203125 "/></g></g></g><g fill="#ffffff" fill-opacity="1"><g transform="translate(277.601243, 318.232479)"><g><path d="M 25.6875 -26.328125 C 24.945312 -26.253906 24.238281 -26.015625 23.5625 -25.609375 C 22.894531 -25.210938 22.117188 -24.394531 21.234375 -23.15625 C 20.347656 -21.925781 19.085938 -19.90625 17.453125 -17.09375 C 15.816406 -14.289062 14.867188 -12.585938 14.609375 -11.984375 C 14.359375 -11.378906 14.234375 -10.503906 14.234375 -9.359375 L 14.234375 -4.078125 C 14.234375 -3.335938 14.484375 -2.753906 14.984375 -2.328125 C 15.492188 -1.898438 16.722656 -1.59375 18.671875 -1.40625 L 18.671875 0 L 5.71875 0 L 5.71875 -1.40625 C 7.632812 -1.539062 8.835938 -1.75 9.328125 -2.03125 C 9.828125 -2.320312 10.078125 -2.941406 10.078125 -3.890625 L 10.078125 -10.609375 C 10.078125 -11.046875 8.976562 -13.328125 6.78125 -17.453125 C 4.582031 -21.578125 3.125 -24.054688 2.40625 -24.890625 C 1.695312 -25.734375 0.613281 -26.210938 -0.84375 -26.328125 L -0.84375 -27.71875 L 10.953125 -27.71875 L 10.953125 -26.328125 C 8.535156 -26.210938 7.328125 -25.898438 7.328125 -25.390625 C 7.328125 -25.023438 9.351562 -21.175781 13.40625 -13.84375 C 17.625 -20.613281 19.734375 -24.296875 19.734375 -24.890625 C 19.734375 -25.273438 19.5 -25.582031 19.03125 -25.8125 C 18.570312 -26.039062 17.570312 -26.210938 16.03125 -26.328125 L 16.03125 -27.71875 L 25.6875 -27.71875 Z M 25.6875 -26.328125 "/></g></g></g></svg>