<svg xmlns="http://www.w3.org/2000/svg" xmlns:xlink="http://www.w3.org/1999/xlink" width="500" zoomAndPan="magnify" viewBox="0 0 375 374.999991" height="500" preserveAspectRatio="xMidYMid meet" version="1.0"><defs><g/><clipPath id="ce5f6df7e1"><path d="M 102 142 L 157 142 L 157 219 L 102 219 Z M 102 142 " clip-rule="nonzero"/></clipPath><clipPath id="9465775d5e"><path d="M 215 58 L 284.882812 58 L 284.882812 219 L 215 219 Z M 215 58 " clip-rule="nonzero"/></clipPath><clipPath id="9ee749f49b"><path d="M 169 37.804688 L 240 37.804688 L 240 96 L 169 96 Z M 169 37.804688 " clip-rule="nonzero"/></clipPath><clipPath id="5a550172eb"><path d="M 84.773438 40 L 167 40 L 167 172 L 84.773438 172 Z M 84.773438 40 " clip-rule="nonzero"/></clipPath><clipPath id="c66bf04966"><path d="M 153 86.613281 L 216.558594 86.613281 L 216.558594 169.863281 L 153 169.863281 Z M 153 86.613281 " clip-rule="nonzero"/></clipPath></defs><g clip-path="url(#ce5f6df7e1)"><path fill="#fdfa03" d="M 147.5 183.847656 C 145.199219 183.847656 143.328125 181.976562 143.328125 179.679688 C 143.328125 177.378906 145.199219 175.507812 147.5 175.507812 C 149.800781 175.507812 151.671875 177.378906 151.671875 179.679688 C 151.671875 181.976562 149.800781 183.847656 147.5 183.847656 Z M 147.5 219.292969 C 151.234375 219.292969 154.261719 216.265625 154.261719 212.527344 C 154.261719 209.464844 152.226562 206.882812 149.433594 206.050781 L 149.433594 188.46875 C 153.472656 187.585938 156.5 183.984375 156.5 179.679688 C 156.5 174.707031 152.472656 170.675781 147.5 170.675781 C 145.214844 170.675781 143.132812 171.53125 141.542969 172.929688 C 136.828125 167.878906 133.074219 162.097656 130.402344 155.835938 C 133.292969 155.066406 135.421875 152.441406 135.421875 149.308594 C 135.421875 145.574219 132.394531 142.546875 128.660156 142.546875 C 124.925781 142.546875 121.898438 145.574219 121.898438 149.308594 C 121.898438 152.148438 123.644531 154.570312 126.121094 155.574219 C 129.085938 163.164062 133.515625 170.132812 139.234375 176.113281 C 139.007812 176.632812 138.832031 177.179688 138.710938 177.746094 L 120.390625 177.746094 C 119.976562 175.855469 118.972656 174.191406 117.582031 172.953125 L 125.046875 159.617188 L 121.675781 157.726562 L 114.210938 171.0625 C 113.382812 170.8125 112.507812 170.675781 111.601562 170.675781 C 106.628906 170.675781 102.597656 174.707031 102.597656 179.679688 C 102.597656 184.648438 106.628906 188.679688 111.601562 188.679688 C 115.90625 188.679688 119.507812 185.652344 120.390625 181.609375 L 138.710938 181.609375 C 139.445312 184.980469 142.070312 187.640625 145.421875 188.433594 L 145.421875 206.09375 C 143.964844 206.5625 142.726562 207.511719 141.886719 208.753906 C 133.003906 203.710938 125.183594 197.207031 118.679688 189.628906 C 117.589844 190.410156 116.363281 191.015625 115.046875 191.402344 C 122.246094 199.957031 130.945312 207.113281 140.738281 212.539062 C 140.742188 216.269531 143.769531 219.292969 147.5 219.292969 " fill-opacity="1" fill-rule="nonzero"/></g><g clip-path="url(#9465775d5e)"><path fill="#5271ff" d="M 224.167969 214.460938 C 221.871094 214.460938 220 212.589844 220 210.289062 C 220 207.988281 221.871094 206.117188 224.167969 206.117188 C 226.46875 206.117188 228.339844 207.988281 228.339844 210.289062 C 228.339844 212.589844 226.46875 214.460938 224.167969 214.460938 Z M 257.824219 176.359375 C 257.824219 173.117188 260.460938 170.480469 263.703125 170.480469 C 266.945312 170.480469 269.582031 173.117188 269.582031 176.359375 C 269.582031 179.601562 266.945312 182.238281 263.703125 182.238281 C 260.460938 182.238281 257.824219 179.601562 257.824219 176.359375 Z M 276.023438 123.527344 C 273.722656 123.527344 271.851562 121.65625 271.851562 119.359375 C 271.851562 117.058594 273.722656 115.1875 276.023438 115.1875 C 278.320312 115.1875 280.191406 117.058594 280.191406 119.359375 C 280.191406 121.65625 278.320312 123.527344 276.023438 123.527344 Z M 241.394531 112.917969 C 238.152344 112.917969 235.515625 110.28125 235.515625 107.039062 C 235.515625 103.796875 238.152344 101.164062 241.394531 101.164062 C 244.632812 101.164062 247.269531 103.796875 247.269531 107.039062 C 247.269531 110.28125 244.632812 112.917969 241.394531 112.917969 Z M 224.167969 219.292969 C 229.140625 219.292969 233.171875 215.261719 233.171875 210.289062 C 233.171875 205.476562 229.394531 201.550781 224.644531 201.300781 L 224.644531 185.871094 C 226.609375 185.003906 228.085938 183.238281 228.542969 181.089844 L 251.730469 179.25 C 252.09375 180.765625 252.738281 182.171875 253.609375 183.414062 L 236.515625 199.898438 L 239.199219 202.679688 L 256.289062 186.195312 C 258.351562 187.753906 260.917969 188.679688 263.703125 188.679688 C 270.507812 188.679688 276.023438 183.164062 276.023438 176.359375 C 276.023438 171.941406 273.695312 168.070312 270.203125 165.898438 C 274.347656 155.335938 276.5 144.035156 276.5 132.511719 C 276.5 131.117188 276.46875 129.730469 276.410156 128.347656 C 281.199219 128.144531 285.023438 124.199219 285.023438 119.359375 C 285.023438 114.386719 280.992188 110.355469 276.023438 110.355469 C 275.28125 110.355469 274.5625 110.449219 273.875 110.617188 C 270.460938 96.660156 263.785156 83.707031 254.230469 72.6875 C 253.160156 73.507812 251.921875 74.117188 250.578125 74.453125 C 260.03125 85.113281 266.929688 98.085938 270.304688 112.402344 C 269.554688 113.023438 268.90625 113.761719 268.386719 114.589844 L 253.5 109.296875 C 253.636719 108.5625 253.710938 107.808594 253.710938 107.039062 C 253.710938 101.574219 250.148438 96.941406 245.222656 95.332031 L 249.039062 71.46875 C 252.355469 71.035156 254.917969 68.203125 254.917969 64.769531 C 254.917969 61.035156 251.890625 58.007812 248.15625 58.007812 C 244.421875 58.007812 241.394531 61.035156 241.394531 64.769531 C 241.394531 67.453125 242.957031 69.765625 245.226562 70.859375 L 241.40625 94.722656 L 241.394531 94.722656 C 234.589844 94.722656 229.074219 100.234375 229.074219 107.039062 C 229.074219 113.84375 234.589844 119.359375 241.394531 119.359375 C 246.058594 119.359375 250.117188 116.761719 252.207031 112.9375 L 267.09375 118.230469 C 267.046875 118.601562 267.019531 118.976562 267.019531 119.359375 C 267.019531 121.363281 267.679688 123.21875 268.789062 124.714844 L 252.253906 143.691406 L 255.167969 146.230469 L 271.703125 127.253906 C 271.960938 127.398438 272.222656 127.527344 272.496094 127.640625 C 272.585938 129.253906 272.636719 130.875 272.636719 132.511719 C 272.636719 143.59375 270.511719 154.378906 266.582031 164.382812 C 265.660156 164.160156 264.695312 164.042969 263.703125 164.042969 C 257.222656 164.042969 251.917969 169.042969 251.425781 175.394531 L 229.863281 177.109375 C 234.796875 172.167969 238.824219 166.507812 241.84375 160.359375 C 242.121094 160.394531 242.402344 160.417969 242.691406 160.417969 C 246.425781 160.417969 249.453125 157.390625 249.453125 153.65625 C 249.453125 151.28125 248.222656 149.191406 246.371094 147.988281 C 247.621094 142.996094 248.269531 137.804688 248.269531 132.511719 C 248.269531 128.722656 247.933594 125.015625 247.292969 121.410156 C 246.109375 121.898438 244.851562 122.242188 243.542969 122.425781 C 244.105469 125.703125 244.40625 129.074219 244.40625 132.511719 C 244.40625 137.429688 243.804688 142.25 242.65625 146.894531 C 238.9375 146.914062 235.925781 149.933594 235.925781 153.65625 C 235.925781 155.714844 236.851562 157.554688 238.300781 158.796875 C 235.382812 164.707031 231.464844 170.132812 226.65625 174.84375 C 225.4375 173.652344 223.773438 172.914062 221.929688 172.914062 C 218.195312 172.914062 215.167969 175.941406 215.167969 179.675781 C 215.167969 183.019531 217.59375 185.785156 220.78125 186.335938 L 220.78125 201.949219 C 217.488281 203.289062 215.167969 206.515625 215.167969 210.289062 C 215.167969 215.261719 219.199219 219.292969 224.167969 219.292969 " fill-opacity="1" fill-rule="nonzero"/></g><g clip-path="url(#9ee749f49b)"><path fill="#5271ff" d="M 208.40625 47.832031 C 206.453125 47.832031 204.863281 46.242188 204.863281 44.289062 C 204.863281 42.335938 206.453125 40.746094 208.40625 40.746094 C 210.359375 40.746094 211.945312 42.335938 211.945312 44.289062 C 211.945312 46.242188 210.359375 47.832031 208.40625 47.832031 Z M 187.367188 70.324219 C 187.367188 73.566406 184.730469 76.203125 181.492188 76.203125 C 178.25 76.203125 175.613281 73.566406 175.613281 70.324219 C 175.613281 67.085938 178.25 64.449219 181.492188 64.449219 C 184.730469 64.449219 187.367188 67.085938 187.367188 70.324219 Z M 231.25 95.285156 C 232.226562 94.441406 233.308594 93.714844 234.476562 93.132812 C 231.132812 88.945312 227.269531 85.195312 222.988281 81.96875 C 223.734375 80.882812 224.167969 79.570312 224.167969 78.152344 C 224.167969 74.488281 221.25 71.511719 217.609375 71.402344 L 211.9375 50.050781 C 212.238281 49.863281 212.527344 49.65625 212.796875 49.425781 C 222.09375 52.542969 230.703125 57.175781 238.324219 63.035156 C 238.566406 61.660156 239.09375 60.378906 239.835938 59.261719 C 232.222656 53.539062 223.832031 49.101562 214.933594 46.03125 C 215.082031 45.476562 215.167969 44.894531 215.167969 44.289062 C 215.167969 40.554688 212.140625 37.527344 208.40625 37.527344 C 205.339844 37.527344 202.757812 39.5625 201.925781 42.355469 L 169.171875 42.355469 L 169.171875 46.222656 L 201.925781 46.222656 C 202.738281 48.953125 205.226562 50.953125 208.199219 51.042969 L 213.875 72.394531 C 212.832031 73.035156 211.972656 73.949219 211.40625 75.042969 C 205.914062 72.511719 199.996094 70.746094 193.800781 69.882812 C 193.566406 63.285156 188.144531 58.007812 181.492188 58.007812 C 174.6875 58.007812 169.171875 63.523438 169.171875 70.324219 C 169.171875 77.128906 174.6875 82.644531 181.492188 82.644531 C 187.117188 82.644531 191.859375 78.871094 193.332031 73.71875 C 199.46875 74.582031 205.308594 76.386719 210.699219 78.984375 C 211.109375 82.328125 213.953125 84.917969 217.40625 84.917969 C 218.269531 84.917969 219.089844 84.75 219.847656 84.453125 C 224.109375 87.550781 227.945312 91.191406 231.25 95.285156 " fill-opacity="1" fill-rule="nonzero"/></g><g clip-path="url(#5a550172eb)"><path fill="#fdfa03" d="M 96.953125 142.867188 C 93.710938 142.867188 91.074219 140.230469 91.074219 136.992188 C 91.074219 133.75 93.710938 131.113281 96.953125 131.113281 C 100.191406 131.113281 102.828125 133.75 102.828125 136.992188 C 102.828125 140.230469 100.191406 142.867188 96.953125 142.867188 Z M 127.363281 122.902344 C 125.410156 122.902344 123.824219 121.3125 123.824219 119.359375 C 123.824219 117.40625 125.410156 115.816406 127.363281 115.816406 C 129.316406 115.816406 130.90625 117.40625 130.90625 119.359375 C 130.90625 121.3125 129.316406 122.902344 127.363281 122.902344 Z M 152.332031 49.007812 C 152.332031 46.707031 154.199219 44.835938 156.5 44.835938 C 158.800781 44.835938 160.671875 46.707031 160.671875 49.007812 C 160.671875 51.304688 158.800781 53.175781 156.5 53.175781 C 154.199219 53.175781 152.332031 51.304688 152.332031 49.007812 Z M 147.5 80.746094 C 149.800781 80.746094 151.671875 82.617188 151.671875 84.917969 C 151.671875 87.214844 149.800781 89.085938 147.5 89.085938 C 145.199219 89.085938 143.328125 87.214844 143.328125 84.917969 C 143.328125 82.617188 145.199219 80.746094 147.5 80.746094 Z M 102.363281 171.6875 C 103.253906 170.660156 104.308594 169.785156 105.492188 169.097656 C 102.566406 162.761719 100.386719 156.0625 99.035156 149.128906 C 104.847656 148.140625 109.269531 143.082031 109.269531 136.992188 C 109.269531 135.429688 108.976562 133.9375 108.445312 132.5625 L 122.734375 124.277344 C 123.945312 125.417969 125.570312 126.121094 127.363281 126.121094 C 131.101562 126.121094 134.128906 123.09375 134.128906 119.359375 C 134.128906 115.972656 131.640625 113.179688 128.394531 112.679688 L 124.179688 82.113281 C 129.234375 80.582031 132.917969 75.886719 132.917969 70.324219 C 132.917969 67.863281 132.195312 65.570312 130.949219 63.644531 C 136.304688 59.433594 142.15625 55.832031 148.40625 52.945312 C 149.273438 54.726562 150.714844 56.179688 152.488281 57.0625 L 147.761719 75.921875 C 147.675781 75.921875 147.589844 75.914062 147.5 75.914062 C 142.527344 75.914062 138.5 79.945312 138.5 84.917969 C 138.5 89.886719 142.527344 93.917969 147.5 93.917969 C 152.472656 93.917969 156.5 89.886719 156.5 84.917969 C 156.5 84.480469 156.46875 84.054688 156.410156 83.632812 L 166.183594 79.960938 L 164.824219 76.34375 L 155.050781 80.015625 C 154.175781 78.675781 152.953125 77.578125 151.511719 76.859375 L 156.238281 58 C 156.328125 58.003906 156.414062 58.007812 156.5 58.007812 C 161.472656 58.007812 165.503906 53.976562 165.503906 49.007812 C 165.503906 44.035156 161.472656 40.003906 156.5 40.003906 C 151.53125 40.003906 147.5 44.035156 147.5 49.007812 C 147.5 49.023438 147.5 49.039062 147.503906 49.058594 C 140.695312 52.121094 134.257812 56.023438 128.324219 60.730469 C 126.210938 59.027344 123.523438 58.007812 120.601562 58.007812 C 113.800781 58.007812 108.28125 63.523438 108.28125 70.324219 C 108.28125 74.1875 110.0625 77.632812 112.84375 79.890625 L 104.164062 94.910156 C 103.664062 94.792969 103.140625 94.722656 102.597656 94.722656 C 98.863281 94.722656 95.835938 97.75 95.835938 101.484375 C 95.835938 105.21875 98.863281 108.246094 102.597656 108.246094 C 106.332031 108.246094 109.363281 105.21875 109.363281 101.484375 C 109.363281 99.6875 108.65625 98.054688 107.511719 96.84375 L 116.1875 81.828125 C 117.484375 82.324219 118.886719 82.609375 120.347656 82.636719 L 124.566406 113.207031 C 122.226562 114.273438 120.601562 116.621094 120.601562 119.359375 C 120.601562 119.902344 120.671875 120.429688 120.792969 120.933594 L 106.503906 129.21875 C 104.410156 126.644531 101.296875 124.9375 97.777344 124.703125 C 98.191406 120.070312 98.964844 115.542969 100.074219 111.144531 C 98.761719 110.800781 97.550781 110.195312 96.507812 109.386719 C 95.179688 114.488281 94.292969 119.730469 93.863281 125.0625 C 88.554688 126.433594 84.632812 131.253906 84.632812 136.992188 C 84.632812 143.160156 89.171875 148.273438 95.09375 149.167969 C 96.53125 156.960938 98.964844 164.527344 102.363281 171.6875 " fill-opacity="1" fill-rule="nonzero"/></g><g clip-path="url(#c66bf04966)"><path fill="#ff0000" d="M 214.082031 126.980469 L 216.476562 109.015625 C 216.566406 108.363281 216.179688 107.734375 215.554688 107.519531 C 204.074219 103.546875 194.09375 96.691406 185.902344 87.195312 C 185.339844 86.679688 184.511719 86.648438 183.933594 87.160156 C 174.34375 96.40625 164.601562 103.078125 154.152344 107.554688 C 153.578125 107.800781 153.238281 108.398438 153.320312 109.019531 L 157.238281 138.402344 C 157.988281 144.023438 160.738281 149.191406 164.976562 152.957031 L 183.976562 169.824219 C 184.246094 170.019531 184.558594 170.179688 184.898438 170.175781 C 185.238281 170.175781 185.550781 170.019531 185.820312 169.824219 L 204.820312 152.957031 C 209.058594 149.191406 211.808594 144.023438 212.558594 138.402344 L 214 127.582031 C 214.066406 127.398438 214.132812 127.179688 214.082031 126.980469 Z M 200.195312 153.34375 L 196.023438 157.046875 L 196.023438 145.160156 C 196.023438 144.710938 195.808594 144.289062 195.441406 144.027344 L 186.289062 137.488281 L 186.289062 116.816406 L 190.355469 114.785156 C 192.859375 117.332031 197.496094 115.402344 197.414062 111.785156 C 197.207031 105.9375 188.566406 106.476562 189.121094 112.289062 L 184.277344 114.710938 C 183.804688 114.949219 183.507812 115.429688 183.507812 115.957031 L 183.507812 138.207031 C 183.507812 138.65625 183.726562 139.078125 184.089844 139.339844 L 193.242188 145.878906 L 193.242188 159.515625 L 189.070312 163.21875 L 189.070312 146.550781 C 189.070312 145.785156 188.449219 145.160156 187.679688 145.160156 L 179.335938 145.160156 L 179.335938 139.214844 C 181.761719 137.886719 180.75 133.984375 177.945312 134.035156 C 175.144531 133.984375 174.128906 137.886719 176.554688 139.214844 L 176.554688 146.550781 C 176.554688 147.320312 177.175781 147.941406 177.945312 147.941406 L 186.289062 147.941406 L 186.289062 165.6875 L 184.898438 166.921875 L 180.726562 163.21875 L 180.726562 154.894531 C 180.808594 154.109375 179.679688 153.34375 179.238281 152.828125 C 179.292969 152.609375 179.328125 152.371094 179.335938 152.113281 C 179.246094 148.445312 173.867188 148.445312 173.773438 152.113281 C 173.828125 154.261719 175.695312 155.140625 177.25 154.773438 L 177.945312 155.472656 L 177.945312 160.75 C 177.394531 160.230469 165.628906 149.90625 165.625 149.710938 L 173.367188 141.972656 C 173.628906 141.710938 173.773438 141.359375 173.773438 140.988281 L 173.773438 133.339844 L 178.78125 129.585938 C 179.132812 129.324219 179.335938 128.910156 179.335938 128.472656 L 179.335938 125.4375 C 183.6875 123.882812 182.617188 117.386719 177.945312 117.347656 C 173.273438 117.386719 172.203125 123.886719 176.554688 125.4375 L 176.554688 127.777344 L 171.550781 131.53125 C 171.199219 131.792969 170.992188 132.207031 170.992188 132.644531 L 170.992188 140.414062 L 163.839844 147.566406 C 161.535156 144.457031 160.207031 140.695312 159.835938 136.816406 L 162.953125 136.816406 L 163.230469 137.917969 C 161.8125 139.632812 163.183594 142.453125 165.429688 142.378906 C 168.84375 142.347656 169.1875 137.363281 165.832031 136.855469 C 165.519531 135.851562 165.5 134.007812 164.039062 134.035156 L 159.464844 134.035156 L 158.90625 129.863281 L 166.820312 129.863281 C 167.589844 129.863281 168.210938 129.242188 168.210938 128.472656 L 168.210938 119.640625 L 179.902344 114.445312 C 181.554688 113.679688 180.457031 111.191406 178.769531 111.90625 C 178.769531 111.90625 166.253906 117.46875 166.253906 117.46875 C 165.753906 117.691406 165.429688 118.191406 165.429688 118.738281 L 165.429688 127.082031 L 158.535156 127.082031 L 157.777344 121.40625 L 160.546875 118.636719 C 164.605469 119.535156 165.410156 113.375 161.253906 113.175781 C 159.464844 113.148438 158.070312 114.949219 158.578125 116.671875 L 157.3125 117.9375 L 156.304688 110.398438 L 175.160156 110.398438 C 175.929688 110.398438 176.550781 109.773438 176.550781 109.007812 L 176.550781 102.054688 C 176.519531 100.226562 173.800781 100.226562 173.769531 102.054688 L 173.769531 107.617188 L 160.546875 107.617188 C 166.316406 104.675781 171.886719 101.027344 177.359375 96.640625 L 180.722656 101.128906 L 180.722656 109.007812 C 180.753906 110.835938 183.472656 110.839844 183.503906 109.007812 C 183.503906 109.007812 183.503906 100.664062 183.503906 100.664062 C 183.503906 100.363281 183.40625 100.070312 183.226562 99.828125 L 179.511719 94.878906 C 181.289062 93.382812 183.058594 91.800781 184.816406 90.136719 C 186.863281 92.417969 189.003906 94.546875 191.25 96.515625 L 186.695312 101.070312 C 186.433594 101.332031 186.285156 101.6875 186.285156 102.054688 L 186.285156 106.226562 C 186.316406 108.054688 189.035156 108.054688 189.066406 106.226562 C 189.066406 106.226562 189.066406 102.628906 189.066406 102.628906 L 193.378906 98.320312 C 195.125 99.738281 196.941406 101.050781 198.800781 102.289062 L 198.800781 116.347656 L 191.410156 118.8125 C 190.84375 119.003906 190.457031 119.535156 190.457031 120.132812 L 190.457031 132.648438 C 190.457031 133.148438 190.726562 133.609375 191.160156 133.855469 L 200.191406 139.019531 L 200.191406 153.347656 Z M 207.839844 132.828125 L 198.105469 127.265625 C 196.503906 126.382812 195.152344 128.746094 196.726562 129.679688 C 196.726562 129.679688 205.757812 134.84375 205.757812 134.84375 L 205.757812 136.816406 C 205.757812 137.414062 206.140625 137.945312 206.710938 138.136719 L 209.613281 139.101562 C 208.761719 143.644531 206.445312 147.792969 202.980469 150.871094 L 202.980469 138.207031 C 202.980469 137.707031 202.710938 137.25 202.277344 137 L 193.246094 131.839844 L 193.246094 121.132812 L 200.636719 118.667969 C 201.203125 118.476562 201.589844 117.945312 201.589844 117.347656 L 201.589844 104.0625 C 204.84375 106.007812 208.265625 107.660156 211.820312 109.0625 L 205.210938 111.898438 C 204.703125 112.117188 204.371094 112.621094 204.371094 113.175781 L 204.371094 120.515625 L 196.980469 122.980469 C 195.496094 123.457031 195.882812 125.71875 197.417969 125.691406 C 197.5625 125.691406 197.710938 125.667969 197.859375 125.621094 L 206.203125 122.839844 C 206.769531 122.648438 207.152344 122.117188 207.152344 121.519531 L 207.152344 114.089844 L 213.351562 111.429688 L 211.453125 125.6875 L 208.164062 125.6875 C 207.742188 124.914062 206.945312 124.328125 205.761719 124.296875 C 202.09375 124.390625 202.09375 129.769531 205.761719 129.859375 C 206.945312 129.832031 207.742188 129.246094 208.164062 128.46875 L 211.078125 128.46875 L 210.035156 136.308594 L 208.542969 135.8125 C 208.476562 134.941406 208.847656 133.304688 207.839844 132.828125 Z M 207.839844 132.828125 " fill-opacity="1" fill-rule="nonzero"/></g><g fill="#000000" fill-opacity="1"><g transform="translate(131.70554, 276.505938)"><g><path d="M 4.875 -3.1875 L 4.875 -2.9375 C 4.875 -1.664062 4.945312 -0.882812 5.09375 -0.59375 C 5.238281 -0.3125 5.523438 -0.171875 5.953125 -0.171875 L 6.046875 -0.171875 L 6.046875 0 L 2.390625 0 L 2.390625 -0.171875 L 2.5 -0.171875 C 2.914062 -0.171875 3.195312 -0.3125 3.34375 -0.59375 C 3.5 -0.882812 3.578125 -1.664062 3.578125 -2.9375 L 3.578125 -7.96875 L 3 -7.96875 C 2.15625 -7.96875 1.550781 -7.820312 1.1875 -7.53125 C 0.820312 -7.25 0.570312 -6.734375 0.4375 -5.984375 L 0.28125 -5.984375 L 0.421875 -8.21875 L 8.03125 -8.21875 L 8.171875 -5.984375 L 8.015625 -5.984375 C 7.867188 -6.734375 7.613281 -7.25 7.25 -7.53125 C 6.882812 -7.820312 6.28125 -7.96875 5.4375 -7.96875 L 4.875 -7.96875 Z M 4.875 -3.1875 "/></g></g></g><g fill="#000000" fill-opacity="1"><g transform="translate(143.237818, 276.505938)"><g><path d="M 0.515625 0 L 0.515625 -0.171875 L 0.609375 -0.171875 C 1.035156 -0.171875 1.320312 -0.3125 1.46875 -0.59375 C 1.613281 -0.882812 1.6875 -1.664062 1.6875 -2.9375 L 1.6875 -5.296875 C 1.6875 -6.554688 1.613281 -7.332031 1.46875 -7.625 C 1.320312 -7.914062 1.035156 -8.0625 0.609375 -8.0625 L 0.515625 -8.0625 L 0.515625 -8.21875 L 6.8125 -8.21875 L 6.90625 -6.265625 L 6.75 -6.265625 C 6.613281 -6.890625 6.351562 -7.328125 5.96875 -7.578125 C 5.59375 -7.835938 4.992188 -7.96875 4.171875 -7.96875 L 2.984375 -7.96875 L 2.984375 -4.484375 C 3.753906 -4.492188 4.273438 -4.597656 4.546875 -4.796875 C 4.816406 -5.003906 4.960938 -5.375 4.984375 -5.90625 L 5.140625 -5.90625 L 5.140625 -2.671875 L 4.984375 -2.671875 C 4.941406 -3.273438 4.78125 -3.6875 4.5 -3.90625 C 4.226562 -4.132812 3.722656 -4.253906 2.984375 -4.265625 L 2.984375 -2.484375 C 2.984375 -1.441406 3.078125 -0.804688 3.265625 -0.578125 C 3.453125 -0.359375 3.941406 -0.25 4.734375 -0.25 C 5.566406 -0.25 6.195312 -0.425781 6.625 -0.78125 C 7.0625 -1.132812 7.332031 -1.703125 7.4375 -2.484375 L 7.609375 -2.484375 L 7.53125 0 Z M 0.515625 0 "/></g></g></g><g fill="#000000" fill-opacity="1"><g transform="translate(154.38403, 276.505938)"><g><path d="M 7.796875 -2.40625 C 7.742188 -1.613281 7.429688 -0.976562 6.859375 -0.5 C 6.296875 -0.03125 5.550781 0.203125 4.625 0.203125 C 3.394531 0.203125 2.414062 -0.160156 1.6875 -0.890625 C 0.96875 -1.617188 0.609375 -2.609375 0.609375 -3.859375 C 0.609375 -5.210938 1 -6.3125 1.78125 -7.15625 C 2.570312 -8 3.585938 -8.421875 4.828125 -8.421875 C 5.273438 -8.421875 5.753906 -8.335938 6.265625 -8.171875 C 6.785156 -8.003906 7.085938 -7.921875 7.171875 -7.921875 C 7.242188 -7.921875 7.304688 -7.941406 7.359375 -7.984375 C 7.421875 -8.035156 7.476562 -8.109375 7.53125 -8.203125 L 7.703125 -8.203125 L 7.765625 -5.59375 L 7.609375 -5.59375 C 7.378906 -6.414062 7.035156 -7.050781 6.578125 -7.5 C 6.128906 -7.945312 5.601562 -8.171875 5 -8.171875 C 4.125 -8.171875 3.421875 -7.785156 2.890625 -7.015625 C 2.367188 -6.253906 2.109375 -5.25 2.109375 -4 C 2.109375 -2.820312 2.367188 -1.894531 2.890625 -1.21875 C 3.421875 -0.550781 4.140625 -0.21875 5.046875 -0.21875 C 5.753906 -0.21875 6.335938 -0.414062 6.796875 -0.8125 C 7.265625 -1.207031 7.523438 -1.738281 7.578125 -2.40625 Z M 7.796875 -2.40625 "/></g></g></g><g fill="#000000" fill-opacity="1"><g transform="translate(165.904427, 276.505938)"><g><path d="M 7.625 -2.109375 L 7.625 -5.859375 C 7.625 -6.703125 7.53125 -7.273438 7.34375 -7.578125 C 7.164062 -7.890625 6.847656 -8.050781 6.390625 -8.0625 L 6.390625 -8.21875 L 9.09375 -8.21875 L 9.09375 -8.0625 C 8.632812 -8.050781 8.316406 -7.890625 8.140625 -7.578125 C 7.960938 -7.273438 7.875 -6.703125 7.875 -5.859375 L 7.875 0.078125 L 7.703125 0.078125 L 1.890625 -7.1875 L 1.890625 -2.359375 C 1.890625 -1.515625 1.976562 -0.941406 2.15625 -0.640625 C 2.332031 -0.335938 2.648438 -0.179688 3.109375 -0.171875 L 3.109375 0 L 0.421875 0 L 0.421875 -0.171875 C 0.867188 -0.179688 1.179688 -0.335938 1.359375 -0.640625 C 1.535156 -0.941406 1.625 -1.515625 1.625 -2.359375 L 1.625 -5.9375 C 1.625 -6.789062 1.539062 -7.351562 1.375 -7.625 C 1.207031 -7.90625 0.898438 -8.050781 0.453125 -8.0625 L 0.453125 -8.21875 L 2.703125 -8.21875 Z M 7.625 -2.109375 "/></g></g></g><g fill="#000000" fill-opacity="1"><g transform="translate(178.303871, 276.505938)"><g><path d="M 4.921875 -0.0625 C 5.785156 -0.0625 6.476562 -0.425781 7 -1.15625 C 7.53125 -1.894531 7.796875 -2.878906 7.796875 -4.109375 C 7.796875 -5.359375 7.535156 -6.347656 7.015625 -7.078125 C 6.503906 -7.804688 5.8125 -8.171875 4.9375 -8.171875 C 4.082031 -8.171875 3.390625 -7.800781 2.859375 -7.0625 C 2.328125 -6.320312 2.0625 -5.347656 2.0625 -4.140625 C 2.0625 -2.921875 2.328125 -1.9375 2.859375 -1.1875 C 3.390625 -0.4375 4.078125 -0.0625 4.921875 -0.0625 Z M 0.53125 -4.078125 C 0.53125 -4.578125 0.613281 -5.054688 0.78125 -5.515625 C 0.945312 -5.972656 1.1875 -6.390625 1.5 -6.765625 C 1.9375 -7.304688 2.453125 -7.71875 3.046875 -8 C 3.648438 -8.28125 4.300781 -8.421875 5 -8.421875 C 5.539062 -8.421875 6.070312 -8.320312 6.59375 -8.125 C 7.113281 -7.9375 7.570312 -7.664062 7.96875 -7.3125 C 8.414062 -6.914062 8.753906 -6.445312 8.984375 -5.90625 C 9.210938 -5.375 9.328125 -4.769531 9.328125 -4.09375 C 9.328125 -3.519531 9.210938 -2.960938 8.984375 -2.421875 C 8.765625 -1.878906 8.460938 -1.421875 8.078125 -1.046875 C 7.679688 -0.671875 7.203125 -0.367188 6.640625 -0.140625 C 6.078125 0.0859375 5.515625 0.203125 4.953125 0.203125 C 4.335938 0.203125 3.765625 0.101562 3.234375 -0.09375 C 2.710938 -0.300781 2.25 -0.597656 1.84375 -0.984375 C 1.394531 -1.398438 1.0625 -1.859375 0.84375 -2.359375 C 0.632812 -2.859375 0.53125 -3.429688 0.53125 -4.078125 Z M 0.53125 -4.078125 "/></g></g></g><g fill="#000000" fill-opacity="1"><g transform="translate(191.249747, 276.505938)"><g><path d="M 2.984375 -2.484375 C 2.984375 -1.460938 3.085938 -0.832031 3.296875 -0.59375 C 3.515625 -0.363281 3.976562 -0.25 4.6875 -0.25 C 5.539062 -0.25 6.179688 -0.421875 6.609375 -0.765625 C 7.046875 -1.117188 7.320312 -1.691406 7.4375 -2.484375 L 7.609375 -2.484375 L 7.53125 0 L 0.515625 0 L 0.515625 -0.171875 L 0.609375 -0.171875 C 1.035156 -0.171875 1.320312 -0.3125 1.46875 -0.59375 C 1.613281 -0.882812 1.6875 -1.664062 1.6875 -2.9375 L 1.6875 -5.296875 C 1.6875 -6.554688 1.613281 -7.332031 1.46875 -7.625 C 1.320312 -7.914062 1.035156 -8.0625 0.609375 -8.0625 L 0.515625 -8.0625 L 0.515625 -8.21875 L 4.171875 -8.21875 L 4.171875 -8.0625 L 4.078125 -8.0625 C 3.640625 -8.0625 3.347656 -7.910156 3.203125 -7.609375 C 3.054688 -7.316406 2.984375 -6.503906 2.984375 -5.171875 Z M 2.984375 -2.484375 "/></g></g></g><g fill="#000000" fill-opacity="1"><g transform="translate(202.051469, 276.505938)"><g><path d="M 4.921875 -0.0625 C 5.785156 -0.0625 6.476562 -0.425781 7 -1.15625 C 7.53125 -1.894531 7.796875 -2.878906 7.796875 -4.109375 C 7.796875 -5.359375 7.535156 -6.347656 7.015625 -7.078125 C 6.503906 -7.804688 5.8125 -8.171875 4.9375 -8.171875 C 4.082031 -8.171875 3.390625 -7.800781 2.859375 -7.0625 C 2.328125 -6.320312 2.0625 -5.347656 2.0625 -4.140625 C 2.0625 -2.921875 2.328125 -1.9375 2.859375 -1.1875 C 3.390625 -0.4375 4.078125 -0.0625 4.921875 -0.0625 Z M 0.53125 -4.078125 C 0.53125 -4.578125 0.613281 -5.054688 0.78125 -5.515625 C 0.945312 -5.972656 1.1875 -6.390625 1.5 -6.765625 C 1.9375 -7.304688 2.453125 -7.71875 3.046875 -8 C 3.648438 -8.28125 4.300781 -8.421875 5 -8.421875 C 5.539062 -8.421875 6.070312 -8.320312 6.59375 -8.125 C 7.113281 -7.9375 7.570312 -7.664062 7.96875 -7.3125 C 8.414062 -6.914062 8.753906 -6.445312 8.984375 -5.90625 C 9.210938 -5.375 9.328125 -4.769531 9.328125 -4.09375 C 9.328125 -3.519531 9.210938 -2.960938 8.984375 -2.421875 C 8.765625 -1.878906 8.460938 -1.421875 8.078125 -1.046875 C 7.679688 -0.671875 7.203125 -0.367188 6.640625 -0.140625 C 6.078125 0.0859375 5.515625 0.203125 4.953125 0.203125 C 4.335938 0.203125 3.765625 0.101562 3.234375 -0.09375 C 2.710938 -0.300781 2.25 -0.597656 1.84375 -0.984375 C 1.394531 -1.398438 1.0625 -1.859375 0.84375 -2.359375 C 0.632812 -2.859375 0.53125 -3.429688 0.53125 -4.078125 Z M 0.53125 -4.078125 "/></g></g></g><g fill="#000000" fill-opacity="1"><g transform="translate(214.997345, 276.505938)"><g><path d="M 7.953125 -0.625 L 7.5625 -0.65625 C 6.957031 -0.34375 6.425781 -0.125 5.96875 0 C 5.519531 0.132812 5.054688 0.203125 4.578125 0.203125 C 3.367188 0.203125 2.40625 -0.171875 1.6875 -0.921875 C 0.96875 -1.679688 0.609375 -2.691406 0.609375 -3.953125 C 0.609375 -5.265625 1.003906 -6.335938 1.796875 -7.171875 C 2.585938 -8.003906 3.597656 -8.421875 4.828125 -8.421875 C 5.273438 -8.421875 5.753906 -8.335938 6.265625 -8.171875 C 6.785156 -8.003906 7.085938 -7.921875 7.171875 -7.921875 C 7.242188 -7.921875 7.304688 -7.941406 7.359375 -7.984375 C 7.421875 -8.035156 7.476562 -8.109375 7.53125 -8.203125 L 7.703125 -8.203125 L 7.765625 -5.59375 L 7.609375 -5.59375 C 7.378906 -6.414062 7.035156 -7.050781 6.578125 -7.5 C 6.128906 -7.945312 5.601562 -8.171875 5 -8.171875 C 4.113281 -8.171875 3.410156 -7.78125 2.890625 -7 C 2.367188 -6.226562 2.109375 -5.1875 2.109375 -3.875 C 2.109375 -2.726562 2.363281 -1.804688 2.875 -1.109375 C 3.394531 -0.410156 4.078125 -0.0625 4.921875 -0.0625 C 5.484375 -0.0625 5.925781 -0.210938 6.25 -0.515625 C 6.570312 -0.828125 6.734375 -1.253906 6.734375 -1.796875 C 6.734375 -2.222656 6.632812 -2.523438 6.4375 -2.703125 C 6.25 -2.878906 5.921875 -2.976562 5.453125 -3 L 5.453125 -3.15625 L 9.109375 -3.15625 L 9.109375 -3 C 8.609375 -2.957031 8.285156 -2.859375 8.140625 -2.703125 C 7.992188 -2.554688 7.921875 -2.179688 7.921875 -1.578125 C 7.921875 -1.441406 7.925781 -1.195312 7.9375 -0.84375 C 7.945312 -0.738281 7.953125 -0.664062 7.953125 -0.625 Z M 7.953125 -0.625 "/></g></g></g><g fill="#000000" fill-opacity="1"><g transform="translate(227.27206, 276.505938)"><g><path d="M 4.265625 -8.21875 L 4.265625 -8.0625 L 4.15625 -8.0625 C 3.726562 -8.0625 3.4375 -7.910156 3.28125 -7.609375 C 3.132812 -7.316406 3.0625 -6.503906 3.0625 -5.171875 L 3.0625 -3.0625 C 3.0625 -1.71875 3.132812 -0.898438 3.28125 -0.609375 C 3.4375 -0.316406 3.726562 -0.171875 4.15625 -0.171875 L 4.265625 -0.171875 L 4.265625 0 L 0.53125 0 L 0.53125 -0.171875 L 0.625 -0.171875 C 1.050781 -0.171875 1.335938 -0.3125 1.484375 -0.59375 C 1.640625 -0.882812 1.71875 -1.664062 1.71875 -2.9375 L 1.71875 -5.296875 C 1.71875 -6.554688 1.640625 -7.332031 1.484375 -7.625 C 1.335938 -7.914062 1.050781 -8.0625 0.625 -8.0625 L 0.53125 -8.0625 L 0.53125 -8.21875 Z M 3.71875 -10.296875 L 1.75 -9.078125 L 1.359375 -9.078125 L 3.078125 -10.84375 C 3.210938 -10.988281 3.320312 -11.082031 3.40625 -11.125 C 3.488281 -11.175781 3.570312 -11.203125 3.65625 -11.203125 C 3.769531 -11.203125 3.867188 -11.160156 3.953125 -11.078125 C 4.035156 -11.003906 4.078125 -10.910156 4.078125 -10.796875 C 4.078125 -10.710938 4.046875 -10.628906 3.984375 -10.546875 C 3.929688 -10.460938 3.84375 -10.378906 3.71875 -10.296875 Z M 3.71875 -10.296875 "/></g></g></g><g fill="#000000" fill-opacity="1"><g transform="translate(235.157491, 276.505938)"><g><path d="M 2.15625 -3.546875 L 4.765625 -3.546875 L 3.46875 -6.796875 Z M 2.0625 -3.265625 L 1.796875 -2.65625 C 1.660156 -2.3125 1.550781 -2 1.46875 -1.71875 C 1.394531 -1.4375 1.359375 -1.207031 1.359375 -1.03125 C 1.359375 -0.78125 1.441406 -0.585938 1.609375 -0.453125 C 1.773438 -0.316406 2.046875 -0.222656 2.421875 -0.171875 L 2.421875 0 L -0.234375 0 L -0.234375 -0.171875 C 0.285156 -0.203125 0.929688 -1.164062 1.703125 -3.0625 C 1.785156 -3.269531 1.847656 -3.425781 1.890625 -3.53125 L 3.875 -8.421875 L 4.109375 -8.421875 L 6.65625 -2.234375 C 6.6875 -2.171875 6.722656 -2.078125 6.765625 -1.953125 C 7.253906 -0.773438 7.738281 -0.179688 8.21875 -0.171875 L 8.21875 0 L 4.765625 0 L 4.765625 -0.171875 C 5.097656 -0.191406 5.34375 -0.253906 5.5 -0.359375 C 5.664062 -0.460938 5.75 -0.617188 5.75 -0.828125 C 5.75 -0.910156 5.726562 -1.019531 5.6875 -1.15625 C 5.644531 -1.289062 5.5625 -1.519531 5.4375 -1.84375 L 4.890625 -3.265625 Z M 2.0625 -3.265625 "/></g></g></g><g fill="#000000" fill-opacity="1"><g transform="translate(246.303704, 276.505938)"><g><path d="M 0.8125 0.0625 L 0.703125 -2.515625 L 0.859375 -2.515625 C 1.003906 -1.742188 1.289062 -1.140625 1.71875 -0.703125 C 2.144531 -0.273438 2.671875 -0.0625 3.296875 -0.0625 C 3.765625 -0.0625 4.132812 -0.210938 4.40625 -0.515625 C 4.6875 -0.816406 4.828125 -1.210938 4.828125 -1.703125 C 4.828125 -2.117188 4.707031 -2.472656 4.46875 -2.765625 C 4.238281 -3.054688 3.804688 -3.351562 3.171875 -3.65625 C 2.234375 -4.101562 1.617188 -4.492188 1.328125 -4.828125 C 1.046875 -5.160156 0.90625 -5.582031 0.90625 -6.09375 C 0.90625 -6.757812 1.117188 -7.3125 1.546875 -7.75 C 1.972656 -8.195312 2.507812 -8.421875 3.15625 -8.421875 C 3.570312 -8.421875 3.960938 -8.34375 4.328125 -8.1875 C 4.703125 -8.039062 4.890625 -7.96875 4.890625 -7.96875 C 4.984375 -7.96875 5.050781 -7.988281 5.09375 -8.03125 C 5.132812 -8.082031 5.164062 -8.171875 5.1875 -8.296875 L 5.359375 -8.296875 L 5.484375 -6 L 5.328125 -6 C 5.085938 -6.75 4.800781 -7.296875 4.46875 -7.640625 C 4.132812 -7.992188 3.722656 -8.171875 3.234375 -8.171875 C 2.859375 -8.171875 2.550781 -8.046875 2.3125 -7.796875 C 2.070312 -7.554688 1.953125 -7.242188 1.953125 -6.859375 C 1.953125 -6.503906 2.050781 -6.207031 2.25 -5.96875 C 2.457031 -5.726562 2.882812 -5.453125 3.53125 -5.140625 C 3.6875 -5.066406 3.945312 -4.941406 4.3125 -4.765625 C 4.675781 -4.597656 4.921875 -4.472656 5.046875 -4.390625 C 5.410156 -4.128906 5.675781 -3.835938 5.84375 -3.515625 C 6.007812 -3.191406 6.09375 -2.796875 6.09375 -2.328125 C 6.09375 -1.585938 5.835938 -0.976562 5.328125 -0.5 C 4.828125 -0.03125 4.175781 0.203125 3.375 0.203125 C 2.96875 0.203125 2.539062 0.125 2.09375 -0.03125 C 1.644531 -0.195312 1.394531 -0.28125 1.34375 -0.28125 C 1.25 -0.28125 1.175781 -0.25 1.125 -0.1875 C 1.070312 -0.132812 1.035156 -0.0507812 1.015625 0.0625 Z M 0.8125 0.0625 "/></g></g></g><g fill="#000000" fill-opacity="1"><g transform="translate(119.642501, 255.49135)"><g><path d="M 18.21875 -15.8125 C 17.082031 -15.65625 16.347656 -15.398438 16.015625 -15.046875 C 15.679688 -14.703125 15.515625 -13.691406 15.515625 -12.015625 L 15.515625 0.171875 L 14.5 0.171875 L 4.421875 -13.453125 L 4.421875 -4.875 C 4.421875 -3.84375 4.484375 -3.085938 4.609375 -2.609375 C 4.734375 -2.140625 4.882812 -1.816406 5.0625 -1.640625 C 5.238281 -1.460938 5.578125 -1.289062 6.078125 -1.125 C 6.585938 -0.96875 7.03125 -0.875 7.40625 -0.84375 L 7.40625 0 L 0.546875 0 L 0.546875 -0.84375 C 1.484375 -0.976562 2.175781 -1.1875 2.625 -1.46875 C 3.070312 -1.757812 3.296875 -2.84375 3.296875 -4.71875 L 3.296875 -12.953125 C 3.296875 -14.566406 2.296875 -15.519531 0.296875 -15.8125 L 0.296875 -16.640625 L 5.015625 -16.640625 L 14.390625 -3.96875 L 14.390625 -11.859375 C 14.390625 -13.648438 14.164062 -14.71875 13.71875 -15.0625 C 13.28125 -15.40625 12.523438 -15.65625 11.453125 -15.8125 L 11.453125 -16.640625 L 18.21875 -16.640625 Z M 18.21875 -15.8125 "/></g></g></g><g fill="#000000" fill-opacity="1"><g transform="translate(138.061651, 255.49135)"><g><path d="M 14.828125 0 L 1.015625 0 L 1.015625 -0.84375 C 2.054688 -0.925781 2.710938 -1.0625 2.984375 -1.25 C 3.253906 -1.4375 3.390625 -1.773438 3.390625 -2.265625 L 3.390625 -14.21875 C 3.390625 -14.757812 3.179688 -15.144531 2.765625 -15.375 C 2.347656 -15.601562 1.765625 -15.75 1.015625 -15.8125 L 1.015625 -16.640625 L 13.890625 -16.640625 L 13.890625 -12.625 L 13.015625 -12.625 C 12.847656 -13.238281 12.535156 -13.832031 12.078125 -14.40625 C 11.617188 -14.988281 11.222656 -15.347656 10.890625 -15.484375 C 10.566406 -15.628906 9.769531 -15.703125 8.5 -15.703125 L 5.890625 -15.703125 L 5.890625 -9.09375 L 7.765625 -9.09375 C 8.648438 -9.09375 9.285156 -9.289062 9.671875 -9.6875 C 10.066406 -10.082031 10.34375 -10.789062 10.5 -11.8125 L 11.359375 -11.8125 L 11.359375 -5.3125 L 10.5 -5.3125 C 10.457031 -5.695312 10.34375 -6.15625 10.15625 -6.6875 C 9.976562 -7.21875 9.722656 -7.59375 9.390625 -7.8125 C 9.066406 -8.03125 8.523438 -8.140625 7.765625 -8.140625 L 5.890625 -8.140625 L 5.890625 -3.140625 C 5.890625 -2.191406 6.039062 -1.59375 6.34375 -1.34375 C 6.644531 -1.09375 7.4375 -0.96875 8.71875 -0.96875 L 9.734375 -0.96875 C 10.828125 -0.96875 11.566406 -1.050781 11.953125 -1.21875 C 12.335938 -1.394531 12.757812 -1.867188 13.21875 -2.640625 C 13.675781 -3.410156 14.035156 -4.164062 14.296875 -4.90625 L 15.125 -4.90625 Z M 14.828125 0 "/></g></g></g><g fill="#000000" fill-opacity="1"><g transform="translate(153.737275, 255.49135)"><g><path d="M 9.296875 0 L 9.296875 -0.84375 C 10.734375 -0.894531 11.453125 -1.117188 11.453125 -1.515625 C 11.453125 -1.929688 10.332031 -3.8125 8.09375 -7.15625 C 5.65625 -3.957031 4.4375 -2.113281 4.4375 -1.625 C 4.4375 -1.132812 5.082031 -0.875 6.375 -0.84375 L 6.375 0 L 0.140625 0 L 0.140625 -0.84375 C 1.003906 -0.914062 1.648438 -1.085938 2.078125 -1.359375 C 2.515625 -1.628906 3.191406 -2.378906 4.109375 -3.609375 L 7.453125 -8.109375 C 4.535156 -12.398438 2.894531 -14.734375 2.53125 -15.109375 C 2.175781 -15.484375 1.4375 -15.71875 0.3125 -15.8125 L 0.3125 -16.640625 L 8.015625 -16.640625 L 8.015625 -15.8125 C 6.597656 -15.71875 5.890625 -15.503906 5.890625 -15.171875 C 5.890625 -14.867188 6.21875 -14.210938 6.875 -13.203125 L 7.359375 -12.4375 C 7.796875 -11.71875 8.34375 -10.878906 9 -9.921875 C 11.164062 -12.835938 12.25 -14.539062 12.25 -15.03125 C 12.25 -15.46875 11.609375 -15.726562 10.328125 -15.8125 L 10.328125 -16.640625 L 16.515625 -16.640625 L 16.515625 -15.8125 C 15.453125 -15.75 14.671875 -15.46875 14.171875 -14.96875 C 13.671875 -14.476562 12.15625 -12.5 9.625 -9.03125 L 11.6875 -6.03125 C 13.3125 -3.625 14.238281 -2.285156 14.46875 -2.015625 C 14.707031 -1.742188 15 -1.484375 15.34375 -1.234375 C 15.6875 -0.984375 16.265625 -0.851562 17.078125 -0.84375 L 17.078125 0 Z M 9.296875 0 "/></g></g></g><g fill="#000000" fill-opacity="1"><g transform="translate(170.784656, 255.49135)"><g><path d="M 1.015625 -5.453125 L 1.015625 -7.3125 L 8 -7.3125 L 8 -5.453125 Z M 1.015625 -5.453125 "/></g></g></g><g fill="#000000" fill-opacity="1"><g transform="translate(179.765601, 255.49135)"><g><path d="M 17.984375 -15.8125 C 16.804688 -15.71875 16.0625 -15.453125 15.75 -15.015625 C 15.4375 -14.578125 15.28125 -13.609375 15.28125 -12.109375 L 15.28125 -4.875 C 15.28125 -3.238281 14.675781 -1.945312 13.46875 -1 C 12.269531 -0.0625 10.875 0.40625 9.28125 0.40625 C 7.382812 0.40625 5.867188 -0.0507812 4.734375 -0.96875 C 3.609375 -1.894531 3.046875 -3.035156 3.046875 -4.390625 L 3.046875 -14.21875 C 3.046875 -15.125 2.320312 -15.65625 0.875 -15.8125 L 0.875 -16.640625 L 7.8125 -16.640625 L 7.8125 -15.8125 C 6.875 -15.726562 6.265625 -15.585938 5.984375 -15.390625 C 5.703125 -15.203125 5.5625 -14.851562 5.5625 -14.34375 L 5.5625 -5.140625 C 5.5625 -2.328125 6.941406 -0.921875 9.703125 -0.921875 C 11.140625 -0.921875 12.234375 -1.320312 12.984375 -2.125 C 13.742188 -2.925781 14.125 -3.921875 14.125 -5.109375 L 14.125 -11.953125 C 14.125 -13.617188 13.914062 -14.644531 13.5 -15.03125 C 13.09375 -15.425781 12.3125 -15.6875 11.15625 -15.8125 L 11.15625 -16.640625 L 17.984375 -16.640625 Z M 17.984375 -15.8125 "/></g></g></g><g fill="#000000" fill-opacity="1"><g transform="translate(197.915082, 255.49135)"><g><path d="M 18.21875 -15.8125 C 17.082031 -15.65625 16.347656 -15.398438 16.015625 -15.046875 C 15.679688 -14.703125 15.515625 -13.691406 15.515625 -12.015625 L 15.515625 0.171875 L 14.5 0.171875 L 4.421875 -13.453125 L 4.421875 -4.875 C 4.421875 -3.84375 4.484375 -3.085938 4.609375 -2.609375 C 4.734375 -2.140625 4.882812 -1.816406 5.0625 -1.640625 C 5.238281 -1.460938 5.578125 -1.289062 6.078125 -1.125 C 6.585938 -0.96875 7.03125 -0.875 7.40625 -0.84375 L 7.40625 0 L 0.546875 0 L 0.546875 -0.84375 C 1.484375 -0.976562 2.175781 -1.1875 2.625 -1.46875 C 3.070312 -1.757812 3.296875 -2.84375 3.296875 -4.71875 L 3.296875 -12.953125 C 3.296875 -14.566406 2.296875 -15.519531 0.296875 -15.8125 L 0.296875 -16.640625 L 5.015625 -16.640625 L 14.390625 -3.96875 L 14.390625 -11.859375 C 14.390625 -13.648438 14.164062 -14.71875 13.71875 -15.0625 C 13.28125 -15.40625 12.523438 -15.65625 11.453125 -15.8125 L 11.453125 -16.640625 L 18.21875 -16.640625 Z M 18.21875 -15.8125 "/></g></g></g><g fill="#000000" fill-opacity="1"><g transform="translate(216.334232, 255.49135)"><g><path d="M 0.9375 0 L 0.9375 -0.84375 C 2.039062 -0.925781 2.734375 -1.039062 3.015625 -1.1875 C 3.296875 -1.332031 3.4375 -1.664062 3.4375 -2.1875 L 3.4375 -14.234375 C 3.4375 -14.753906 3.203125 -15.128906 2.734375 -15.359375 C 2.273438 -15.597656 1.675781 -15.75 0.9375 -15.8125 L 0.9375 -16.640625 L 8.4375 -16.640625 L 8.4375 -15.8125 C 7.375 -15.726562 6.691406 -15.585938 6.390625 -15.390625 C 6.085938 -15.191406 5.9375 -14.847656 5.9375 -14.359375 L 5.9375 -2.328125 C 5.9375 -1.921875 6.066406 -1.59375 6.328125 -1.34375 C 6.597656 -1.101562 7.300781 -0.9375 8.4375 -0.84375 L 8.4375 0 Z M 0.9375 0 "/></g></g></g><g fill="#000000" fill-opacity="1"><g transform="translate(225.70209, 255.49135)"><g><path d="M 13.859375 -12.125 C 13.691406 -12.769531 13.378906 -13.441406 12.921875 -14.140625 C 12.460938 -14.847656 12.066406 -15.285156 11.734375 -15.453125 C 11.398438 -15.628906 10.613281 -15.71875 9.375 -15.71875 L 8.671875 -15.71875 L 8.671875 -2.421875 C 8.671875 -1.984375 8.8125 -1.640625 9.09375 -1.390625 C 9.375 -1.140625 10.128906 -0.957031 11.359375 -0.84375 L 11.359375 0 L 3.5 0 L 3.5 -0.84375 C 4.65625 -0.925781 5.390625 -1.054688 5.703125 -1.234375 C 6.015625 -1.410156 6.171875 -1.769531 6.171875 -2.3125 L 6.171875 -15.71875 L 5.5 -15.71875 C 4.363281 -15.71875 3.628906 -15.660156 3.296875 -15.546875 C 2.960938 -15.441406 2.550781 -15.035156 2.0625 -14.328125 C 1.582031 -13.617188 1.234375 -12.882812 1.015625 -12.125 L 0.171875 -12.125 L 0.171875 -16.640625 L 14.671875 -16.640625 L 14.671875 -12.125 Z M 13.859375 -12.125 "/></g></g></g><g fill="#000000" fill-opacity="1"><g transform="translate(240.56872, 255.49135)"><g><path d="M 15.421875 -15.8125 C 14.972656 -15.757812 14.546875 -15.613281 14.140625 -15.375 C 13.742188 -15.132812 13.28125 -14.644531 12.75 -13.90625 C 12.21875 -13.164062 11.457031 -11.953125 10.46875 -10.265625 C 9.488281 -8.578125 8.921875 -7.550781 8.765625 -7.1875 C 8.617188 -6.832031 8.546875 -6.304688 8.546875 -5.609375 L 8.546875 -2.453125 C 8.546875 -2.003906 8.695312 -1.648438 9 -1.390625 C 9.300781 -1.140625 10.035156 -0.957031 11.203125 -0.84375 L 11.203125 0 L 3.4375 0 L 3.4375 -0.84375 C 4.582031 -0.925781 5.300781 -1.050781 5.59375 -1.21875 C 5.894531 -1.394531 6.046875 -1.765625 6.046875 -2.328125 L 6.046875 -6.375 C 6.046875 -6.632812 5.382812 -8 4.0625 -10.46875 C 2.75 -12.945312 1.878906 -14.4375 1.453125 -14.9375 C 1.023438 -15.445312 0.375 -15.738281 -0.5 -15.8125 L -0.5 -16.640625 L 6.578125 -16.640625 L 6.578125 -15.8125 C 5.117188 -15.738281 4.390625 -15.550781 4.390625 -15.25 C 4.390625 -15.03125 5.609375 -12.71875 8.046875 -8.3125 C 10.578125 -12.375 11.84375 -14.582031 11.84375 -14.9375 C 11.84375 -15.175781 11.703125 -15.363281 11.421875 -15.5 C 11.148438 -15.632812 10.550781 -15.738281 9.625 -15.8125 L 9.625 -16.640625 L 15.421875 -16.640625 Z M 15.421875 -15.8125 "/></g></g></g></svg>